<?xml version="1.0" encoding="UTF-8" standalone="no"?>
<!-- Created with Inkscape (http://www.inkscape.org/) -->

<svg
   xmlns:dc="http://purl.org/dc/elements/1.1/"
   xmlns:cc="http://creativecommons.org/ns#"
   xmlns:rdf="http://www.w3.org/1999/02/22-rdf-syntax-ns#"
   xmlns:svg="http://www.w3.org/2000/svg"
   xmlns="http://www.w3.org/2000/svg"
   xmlns:sodipodi="http://sodipodi.sourceforge.net/DTD/sodipodi-0.dtd"
   xmlns:inkscape="http://www.inkscape.org/namespaces/inkscape"
   width="98.682533mm"
   height="23.65477mm"
   viewBox="0 0 98.682533 23.65477"
   version="1.1"
   id="svg254"
   inkscape:version="0.92.5 (2060ec1f9f, 2020-04-08)"
   sodipodi:docname="Oehrchenbaum.svg">
  <defs
     id="defs248" />
  <sodipodi:namedview
     id="base"
     pagecolor="#ffffff"
     bordercolor="#666666"
     borderopacity="1.0"
     inkscape:pageopacity="0.0"
     inkscape:pageshadow="2"
     inkscape:zoom="1.4"
     inkscape:cx="203.04566"
     inkscape:cy="75.125878"
     inkscape:document-units="mm"
     inkscape:current-layer="layer1"
     showgrid="false"
     inkscape:window-width="1920"
     inkscape:window-height="1015"
     inkscape:window-x="0"
     inkscape:window-y="0"
     inkscape:window-maximized="1"
     fit-margin-top="0"
     fit-margin-left="0"
     fit-margin-right="0"
     fit-margin-bottom="0" />
  <metadata
     id="metadata251">
    <rdf:RDF>
      <cc:Work
         rdf:about="">
        <dc:format>image/svg+xml</dc:format>
        <dc:type
           rdf:resource="http://purl.org/dc/dcmitype/StillImage" />
        <dc:title></dc:title>
      </cc:Work>
    </rdf:RDF>
  </metadata>
  <g
     inkscape:label="Ebene 1"
     inkscape:groupmode="layer"
     id="layer1"
     transform="translate(-3.8440104,-12.308563)">
    <g
       aria-label="OHRENBAUM GmBH"
       style="font-style:normal;font-variant:normal;font-weight:normal;font-stretch:normal;font-size:10.74447155px;line-height:81.09999895%;font-family:'Linux Libertine O';-inkscape-font-specification:'Linux Libertine O';letter-spacing:2.14889407px;word-spacing:0px;fill:#000000;fill-opacity:1;stroke:none;stroke-width:0.26458332px;stroke-linecap:butt;stroke-linejoin:miter;stroke-opacity:1"
       id="text3939">
      <path
         d="m 5.6768866,33.586712 q 0,-0.947752 0.7235528,-1.691687 0.7235528,-0.743935 1.6916868,-0.743935 1.0394703,0 1.7834048,0.692981 0.754125,0.682789 0.754125,1.701877 0,0.998707 -0.6725979,1.701878 -0.6725984,0.703171 -1.8649319,0.703171 -1.0190884,0 -1.7222595,-0.682789 -0.6929801,-0.69298 -0.6929801,-1.681496 z m 2.3540943,-2.109513 q -0.7846981,0 -1.1413791,0.560498 -0.34649,0.560499 -0.34649,1.396152 0,0.937561 0.438208,1.538823 0.4483989,0.601262 1.2738606,0.601262 0.4178262,0 0.7235528,-0.183436 0.3159174,-0.183435 0.4789716,-0.478971 0.1630541,-0.305727 0.2343903,-0.621644 0.081527,-0.326108 0.081527,-0.652217 0,-0.866225 -0.4483989,-1.508251 -0.4382081,-0.652216 -1.2942424,-0.652216 z"
         style="font-style:normal;font-variant:normal;font-weight:normal;font-stretch:normal;font-size:10.19088459px;font-family:'EB Garamond 12 All SC';-inkscape-font-specification:'EB Garamond 12 All SC';letter-spacing:1.45785415px;stroke-width:0.26458332px"
         id="path76" />
      <path
         d="m 14.298928,33.158695 q 0,0.06114 0.101909,0.06114 1.487869,0.03057 2.486576,0 0.05095,0 0.05095,-0.08153 V 31.95617 q 0,-0.152863 -0.163054,-0.285344 -0.132481,-0.1121 -0.448399,-0.244582 -0.05095,-0.02038 -0.05095,-0.12229 0,-0.1121 0.05095,-0.1121 0.2242,0 0.509544,0.01019 0.285345,0.01019 0.468781,0.01019 0.193627,0 0.499353,-0.01019 0.305727,-0.01019 0.519736,-0.01019 0.06114,0 0.05095,0.1121 0,0.101909 -0.05095,0.12229 -0.356681,0.142673 -0.478972,0.254772 -0.142672,0.122291 -0.142672,0.275154 v 3.006311 q 0,0.244582 0.142672,0.377063 0.203818,0.183436 0.550308,0.244581 0.08153,0.02038 0.08153,0.132482 0,0.1121 -0.08153,0.1121 -0.203818,0 -0.540117,-0.03057 -0.336299,-0.02038 -0.550308,-0.02038 -0.203818,0 -0.529926,0.02038 -0.326108,0.03057 -0.519735,0.03057 -0.04076,0 -0.07134,-0.05096 -0.02038,-0.06114 -0.01019,-0.122291 0.02038,-0.06115 0.08153,-0.07134 0.366872,-0.07134 0.550308,-0.244581 0.132481,-0.122291 0.132481,-0.377063 v -1.314624 q 0,-0.05095 -0.04076,-0.05095 -1.538824,-0.03057 -2.568103,0 -0.03057,0 -0.03057,0.07134 v 1.294242 q 0,0.244582 0.142673,0.377063 0.203817,0.183436 0.540116,0.244581 0.09172,0.02038 0.09172,0.132482 0,0.1121 -0.09172,0.1121 -0.203817,0 -0.519735,-0.03057 -0.315917,-0.02038 -0.519735,-0.02038 -0.224199,0 -0.570689,0.02038 -0.3363,0.03057 -0.519735,0.03057 -0.04076,0 -0.07134,-0.05096 -0.02038,-0.06114 -0.01019,-0.122291 0.02038,-0.06115 0.08153,-0.07134 0.366871,-0.07134 0.550307,-0.244581 0.132482,-0.122291 0.132482,-0.377063 V 31.95617 q 0,-0.152863 -0.163054,-0.285344 -0.132482,-0.1121 -0.448399,-0.244582 -0.03057,-0.01019 -0.05096,-0.07134 -0.01019,-0.06114 0,-0.1121 0.02038,-0.05095 0.05096,-0.05095 0.224199,0 0.519735,0.01019 0.305726,0.01019 0.499353,0.01019 0.183436,0 0.468781,-0.01019 0.285345,-0.01019 0.499353,-0.01019 0.06115,0 0.06115,0.1121 0,0.101909 -0.06115,0.12229 -0.34649,0.142673 -0.46878,0.254772 -0.142673,0.101909 -0.142673,0.275154 z"
         style="font-style:normal;font-variant:normal;font-weight:normal;font-stretch:normal;font-size:10.19088459px;font-family:'EB Garamond 12 All SC';-inkscape-font-specification:'EB Garamond 12 All SC';letter-spacing:1.45785415px;stroke-width:0.26458332px"
         id="path78" />
      <path
         d="m 21.850927,33.872057 q 0.01019,0.23439 0.02038,0.611453 0.01019,0.366872 0.01019,0.489162 0.01019,0.407636 0.662407,0.57069 0.05095,0.02038 0.05095,0.163054 0,0.132481 -0.05095,0.132481 -0.04076,0 -0.397445,-0.03057 -0.35668,-0.03057 -0.58088,-0.03057 -0.254772,0 -0.672598,0.03057 -0.407636,0.03057 -0.468781,0.03057 -0.05095,0 -0.05095,-0.12229 0,-0.122291 0.05095,-0.132482 0.295536,-0.07134 0.45859,-0.23439 0.203818,-0.183436 0.203818,-0.417826 v -2.720967 q 0,-0.407635 -0.09172,-0.509544 -0.101909,-0.112099 -0.173245,-0.142672 -0.06115,-0.04076 -0.264963,-0.09172 -0.03057,-0.01019 -0.05096,-0.07134 -0.02038,-0.06115 -0.02038,-0.122291 0.01019,-0.06114 0.06115,-0.06114 0.142672,0 0.438208,0.02038 0.295535,0.01019 0.489162,0.01019 0.1121,0 0.366872,-0.03057 0.264963,-0.03057 0.489162,-0.03057 0.794889,0 1.284052,0.326108 0.489162,0.315918 0.489162,0.876417 0,0.214008 -0.132481,0.489162 -0.122291,0.275154 -0.2242,0.366872 -0.203817,0.203818 -0.407635,0.295535 -0.04076,0.01019 0,0.06115 0.122291,0.183436 0.34649,0.58088 0.23439,0.387254 0.428017,0.662408 0.203818,0.264963 0.489163,0.540117 0.101909,0.101908 0.193626,0.152863 0.101909,0.04076 0.152864,0.05095 0.06114,0.01019 0.203817,0.01019 0.142673,-0.01019 0.214009,-0.01019 0.03057,0 0.04076,0.04076 0.01019,0.04076 -0.01019,0.09172 -0.02038,0.05095 -0.05096,0.07134 -0.224199,0.152863 -0.499353,0.152863 -0.80508,0 -1.131188,-0.387253 -0.122291,-0.152864 -0.2242,-0.295536 -0.101909,-0.142672 -0.163054,-0.244581 -0.06114,-0.1121 -0.224199,-0.377063 -0.152864,-0.264963 -0.285345,-0.478972 -0.122291,-0.183435 -0.305727,-0.275153 -0.254772,-0.132482 -0.560498,-0.152864 -0.05096,-0.01019 -0.08153,0.03057 -0.02038,0.04076 -0.02038,0.1121 z m 0,-0.703171 q 0,0.132481 0.05095,0.193626 0.05096,0.05095 0.09172,0.06115 0.05096,0 0.193627,0 0.438208,0 0.743935,-0.203818 0.315917,-0.193627 0.315917,-0.825462 0,-0.917179 -0.91718,-0.917179 -0.264963,0 -0.356681,0.101909 -0.08153,0.09172 -0.09172,0.285344 -0.04076,0.937562 -0.03057,1.304434 z"
         style="font-style:normal;font-variant:normal;font-weight:normal;font-stretch:normal;font-size:10.19088459px;font-family:'EB Garamond 12 All SC';-inkscape-font-specification:'EB Garamond 12 All SC';letter-spacing:1.45785415px;stroke-width:0.26458332px"
         id="path80" />
      <path
         d="m 29.902272,33.596903 q -0.489162,-0.07134 -0.876416,-0.01019 -0.173245,0.02038 -0.173245,0.173245 0,0.326108 0.02038,1.120997 0.02038,0.519735 0.438208,0.519735 h 0.896798 q 0.05095,0 0.23439,-0.04076 0.193627,-0.04076 0.254772,-0.08153 0.183436,-0.152864 0.326109,-0.468781 0.03057,-0.07134 0.152863,-0.07134 0.09172,0 0.09172,0.08153 -0.04076,0.407635 -0.173245,0.876416 -0.02038,0.122291 -0.09172,0.122291 -0.519735,0 -1.345197,-0.02038 -0.815271,-0.03057 -1.131188,-0.03057 l -1.090425,0.06115 q -0.02038,0 -0.04076,-0.06115 -0.01019,-0.06115 0,-0.12229 0.01019,-0.06115 0.04076,-0.06115 0.326109,-0.09172 0.45859,-0.214008 0.193627,-0.173245 0.193627,-0.377063 v -2.833066 q 0,-0.417826 -0.09172,-0.509544 -0.03057,-0.03057 -0.05095,-0.05096 -0.02038,-0.03057 -0.05096,-0.04076 -0.02038,-0.02038 -0.04076,-0.03057 -0.01019,-0.01019 -0.05096,-0.02038 -0.04076,-0.02038 -0.06114,-0.02038 -0.02038,-0.01019 -0.08153,-0.03057 -0.06115,-0.02038 -0.101909,-0.03057 -0.05095,-0.01019 -0.06114,-0.112099 0,-0.101909 0.06114,-0.101909 0.142672,0 0.397444,0.01019 0.264963,0.01019 0.428018,0.01019 0.397444,0 0.968134,-0.01019 0.570689,-0.01019 0.957943,-0.01019 0.397444,-0.01019 0.46878,-0.01019 0.1121,0 0.122291,0.06115 0.1121,0.580881 0.1121,0.937562 0,0.06114 -0.1121,0.06114 -0.05095,0 -0.08153,-0.07134 -0.09172,-0.275154 -0.203818,-0.387254 -0.152863,-0.183436 -0.428017,-0.183436 h -1.080234 q -0.06114,0 -0.112099,0.06114 -0.05096,0.05096 -0.06115,0.122291 -0.05095,0.285345 -0.06114,0.540117 -0.02038,0.672598 -0.02038,0.723553 0,0.152863 0.07134,0.152863 h 0.886607 q 0.193627,0 0.305727,-0.101909 0.09172,-0.09172 0.122291,-0.183436 0.09172,-0.132481 0.142672,-0.132481 0.03057,0 0.06114,0.04076 0.04076,0.03057 0.03057,0.07134 -0.03057,0.407635 0,1.029279 0.02038,0.12229 -0.06114,0.12229 -0.09172,0 -0.183436,-0.193626 -0.06115,-0.2242 -0.326109,-0.275154 z"
         style="font-style:normal;font-variant:normal;font-weight:normal;font-stretch:normal;font-size:10.19088459px;font-family:'EB Garamond 12 All SC';-inkscape-font-specification:'EB Garamond 12 All SC';letter-spacing:1.45785415px;stroke-width:0.26458332px"
         id="path82" />
      <path
         d="m 33.714215,35.828707 q -0.06115,0 -0.06115,-0.1121 0.01019,-0.122291 0.06115,-0.132482 0.305727,-0.05095 0.407636,-0.163054 0.132481,-0.142672 0.152863,-0.448399 0.07134,-1.294242 0.07134,-2.853447 0,-0.295536 -0.06114,-0.366872 -0.203818,-0.244582 -0.652217,-0.285345 -0.07134,0 -0.07134,-0.122291 0,-0.12229 0.07134,-0.12229 0.05095,0.01019 0.743935,0.01019 0.703171,-0.01019 0.723553,-0.01019 0.04076,0 0.06115,0.02038 0.02038,0.02038 0.05095,0.07134 0.03057,0.04076 0.05096,0.06114 0.326108,0.387254 1.212715,1.487869 0.896798,1.090425 1.538824,1.813978 0.01019,0.01019 0.03057,0.05095 0.03057,0.03057 0.05096,0.05095 0.02038,0.02038 0.04076,0.03057 0.03057,0.01019 0.04076,-0.02038 0.02038,-0.03057 0.02038,-0.112099 0.03057,-0.906989 -0.03057,-2.731158 0,-0.09172 -0.06115,-0.163054 -0.06114,-0.08153 -0.163054,-0.132481 -0.09172,-0.05096 -0.173245,-0.08153 -0.08153,-0.03057 -0.183436,-0.06115 -0.101908,-0.03057 -0.12229,-0.04076 -0.03057,-0.01019 -0.04076,-0.1121 0,-0.1121 0.04076,-0.1121 0.183436,0 0.448399,0.02038 0.275154,0.02038 0.448399,0.02038 0.163054,0 0.428017,-0.02038 0.264963,-0.02038 0.417826,-0.02038 0.03057,0 0.04076,0.1121 0.01019,0.1121 -0.04076,0.1121 -0.193627,0.03057 -0.356681,0.163054 -0.183436,0.122291 -0.193627,0.275154 -0.03057,0.519735 -0.05095,1.029279 -0.01019,0.499354 -0.01019,0.825462 0,0.315917 0,0.92737 0.01019,0.601263 0.01019,0.978325 0,0.1121 -0.08153,0.193627 -0.07134,0.08153 -0.173245,0.08153 -0.264963,0 -0.509545,-0.275154 -1.253478,-1.549014 -2.731157,-3.220319 -0.09172,-0.101909 -0.152863,-0.122291 -0.06115,-0.02038 -0.08153,0.01019 -0.01019,0.02038 -0.02038,0.08153 -0.06115,1.936268 -0.04076,2.639439 0.02038,0.234391 0.112099,0.336299 0.122291,0.152864 0.356681,0.193627 0.06115,0.01019 0.05096,0.132482 0,0.1121 -0.08153,0.1121 -0.183436,0 -0.407636,-0.02038 -0.224199,-0.02038 -0.366871,-0.02038 -0.142673,0 -0.377063,0.02038 -0.234391,0.02038 -0.387254,0.02038 z"
         style="font-style:normal;font-variant:normal;font-weight:normal;font-stretch:normal;font-size:10.19088459px;font-family:'EB Garamond 12 All SC';-inkscape-font-specification:'EB Garamond 12 All SC';letter-spacing:1.45785415px;stroke-width:0.26458332px"
         id="path84" />
      <path
         d="m 43.976982,34.48351 q 0,-0.611453 -0.34649,-0.815271 -0.295536,-0.173245 -0.733744,-0.173245 -0.214009,0 -0.315917,0.08153 -0.08153,0.05095 -0.08153,0.173245 -0.02038,0.448399 0,1.233097 0.02038,0.264963 0.122291,0.366872 0.122291,0.142672 0.438208,0.142672 0.407636,0 0.662408,-0.275154 0.254772,-0.275153 0.254772,-0.733743 z m -1.019089,1.345197 q -0.05095,0 -0.407635,-0.03057 -0.356681,-0.03057 -0.529926,-0.03057 -0.163054,0 -0.519735,0.03057 -0.34649,0.02038 -0.428017,0.02038 -0.05096,0 -0.05096,-0.1121 0,-0.122291 0.05096,-0.132482 0.193626,-0.02038 0.275154,-0.04076 0.08153,-0.02038 0.183435,-0.1121 0.203818,-0.173245 0.203818,-0.428017 v -2.782112 q 0,-0.377062 -0.09172,-0.478971 -0.183436,-0.203818 -0.438208,-0.264963 -0.03057,-0.01019 -0.05095,-0.07134 -0.02038,-0.06115 -0.02038,-0.122291 0.01019,-0.06114 0.06115,-0.06114 0.142673,0 0.407636,0.01019 0.275154,0.01019 0.448399,0.01019 0.12229,0 0.407635,-0.02038 0.285345,-0.03057 0.509544,-0.03057 1.650923,0 1.650923,1.059852 0,0.489163 -0.224199,0.713362 -0.142672,0.132482 -0.58088,0.305727 -0.02038,0.01019 -0.03057,0.04076 0,0.02038 0.03057,0.03057 0.224199,0.07134 0.34649,0.12229 0.12229,0.05095 0.305726,0.173245 0.183436,0.122291 0.264963,0.3363 0.09172,0.203817 0.09172,0.489162 0,0.80508 -0.713362,1.202524 -0.275154,0.173246 -1.15157,0.173246 z m -0.45859,-2.894212 q 0.01019,0.163054 0.05096,0.203818 0.05095,0.04076 0.163054,0.05095 0.45859,0.04076 0.856034,-0.193626 0.295536,-0.173245 0.295536,-0.662408 0,-0.377063 -0.183436,-0.601262 -0.173245,-0.2242 -0.713362,-0.2242 -0.275154,0 -0.377063,0.07134 -0.09172,0.07134 -0.101908,0.244581 -0.01019,0.540117 0.01019,1.110806 z"
         style="font-style:normal;font-variant:normal;font-weight:normal;font-stretch:normal;font-size:10.19088459px;font-family:'EB Garamond 12 All SC';-inkscape-font-specification:'EB Garamond 12 All SC';letter-spacing:1.45785415px;stroke-width:0.26458332px"
         id="path86" />
      <path
         d="m 47.248813,35.828707 q -0.06114,0 -0.06114,-0.1121 0.01019,-0.1121 0.06114,-0.132482 0.377063,-0.12229 0.580881,-0.295535 0.173245,-0.142673 0.315917,-0.428018 0.448399,-0.937561 1.182143,-2.731157 0.05095,-0.142672 0.07134,-0.264963 0.01019,-0.05095 0.02038,-0.132481 0.01019,-0.08153 0.02038,-0.132482 l 0.01019,-0.06114 q 0.06115,-0.01019 0.234391,-0.132481 0.173245,-0.122291 0.224199,-0.183436 0.122291,-0.142673 0.142672,-0.142673 0.04076,0 0.07134,0.09172 0.203817,0.550308 0.601262,1.691687 0.407635,1.141379 0.672598,1.84455 0.1121,0.326109 0.356681,0.580881 0.2242,0.244581 0.45859,0.295535 0.06115,0.02038 0.07134,0.132482 0.01019,0.1121 -0.07134,0.1121 -0.183436,0 -0.489163,-0.03057 -0.295535,-0.02038 -0.489162,-0.02038 -0.2242,0 -0.560499,0.02038 -0.336299,0.03057 -0.499353,0.03057 -0.04076,0 -0.05095,-0.06115 -0.01019,-0.06115 0.01019,-0.12229 0.02038,-0.06115 0.05096,-0.06115 0.264963,-0.05095 0.407635,-0.275154 0.08153,-0.142672 0.02038,-0.417826 -0.02038,-0.1121 -0.142672,-0.438208 -0.02038,-0.07134 -0.193627,-0.07134 H 48.8284 q -0.07134,0 -0.12229,0.122291 -0.163055,0.407635 -0.163055,0.438208 -0.04076,0.254772 0.01019,0.336299 0.152864,0.244581 0.428017,0.305726 0.07134,0.01019 0.07134,0.132482 0,0.1121 -0.07134,0.1121 -0.203817,0 -0.509544,-0.03057 -0.305726,-0.02038 -0.499353,-0.02038 -0.142672,0 -0.366872,0.02038 -0.224199,0.03057 -0.356681,0.03057 z m 2.374476,-3.464901 q -0.214008,0.529926 -0.723553,1.640732 -0.03057,0.06115 0,0.08153 0.03057,0.02038 0.132482,0.02038 h 1.192333 q 0.08153,0 0.09172,-0.01019 0.01019,-0.01019 -0.01019,-0.09172 -0.06114,-0.224199 -0.560498,-1.640732 -0.03057,-0.08153 -0.05095,-0.101909 -0.01019,-0.02038 -0.03057,0 -0.01019,0.02038 -0.04076,0.101909 z"
         style="font-style:normal;font-variant:normal;font-weight:normal;font-stretch:normal;font-size:10.19088459px;font-family:'EB Garamond 12 All SC';-inkscape-font-specification:'EB Garamond 12 All SC';letter-spacing:1.45785415px;stroke-width:0.26458332px"
         id="path88" />
      <path
         d="m 54.800798,33.719193 v -1.712068 q 0,-0.203818 -0.06115,-0.315918 -0.06114,-0.12229 -0.122291,-0.142672 -0.06115,-0.03057 -0.214008,-0.08153 -0.04076,-0.01019 -0.07134,-0.07134 -0.02038,-0.06115 -0.01019,-0.122291 0.01019,-0.06114 0.06115,-0.06114 0.163054,0 0.438208,0.01019 0.275154,0.01019 0.448399,0.01019 0.122291,0 0.305727,-0.01019 0.183435,-0.01019 0.397444,-0.01019 0.06115,0 0.06115,0.1121 0,0.112099 -0.06115,0.132481 -0.397444,0.05095 -0.407635,0.621644 v 1.834359 q 0,0.682789 0.428017,1.171952 0.438208,0.489162 1.120997,0.489162 0.652217,0 0.957943,-0.407635 0.305727,-0.407635 0.305727,-1.335006 v -1.599969 q 0.01019,-0.438208 -0.09172,-0.560498 -0.09172,-0.132482 -0.366872,-0.203818 -0.07134,-0.02038 -0.07134,-0.142672 0.01019,-0.122291 0.08153,-0.122291 h 0.733744 q 0.152863,0 0.407635,0 0.254772,-0.01019 0.417826,-0.01019 0.06115,0 0.05096,0.1121 -0.01019,0.101909 -0.05096,0.112099 -0.570689,0.1121 -0.591071,0.560499 -0.07134,0.784698 -0.07134,1.61016 0,2.343903 -1.84455,2.343903 -1.02928,0 -1.61016,-0.631834 -0.57069,-0.631835 -0.57069,-1.579588 z"
         style="font-style:normal;font-variant:normal;font-weight:normal;font-stretch:normal;font-size:10.19088459px;font-family:'EB Garamond 12 All SC';-inkscape-font-specification:'EB Garamond 12 All SC';letter-spacing:1.45785415px;stroke-width:0.26458332px"
         id="path90" />
      <path
         d="m 64.900521,35.808325 q -0.09172,0.173245 -0.203818,0.152863 -0.101909,-0.01019 -0.173245,-0.173245 -0.275154,-0.58088 -0.743935,-1.691687 -0.45859,-1.120997 -0.682789,-1.640732 -0.07134,-0.173245 -0.09172,0 -0.203818,1.987222 -0.23439,2.53753 0,0.193627 0.203817,0.397444 0.122291,0.132482 0.377063,0.193627 0.05095,0.01019 0.06114,0.132482 0.02038,0.1121 -0.06114,0.1121 -0.132481,0 -0.387254,-0.02038 -0.244581,-0.02038 -0.397444,-0.02038 -0.173245,0 -0.448399,0.02038 -0.264963,0.02038 -0.377063,0.02038 -0.06115,0 -0.06115,-0.1121 0.01019,-0.122291 0.06115,-0.132482 0.326109,-0.07134 0.448399,-0.163054 0.1121,-0.09172 0.132482,-0.264963 0.315917,-2.323522 0.315917,-3.098029 0,-0.254772 -0.1121,-0.387253 -0.142672,-0.163055 -0.591071,-0.264963 -0.09172,-0.02038 -0.06114,-0.183436 0.02038,-0.06115 0.05095,-0.06115 0.326109,0.05096 0.733744,0.05096 0.417826,0 0.58088,-0.01019 0.173245,-0.02038 0.254772,0.01019 1.120998,2.812684 1.406343,3.505664 0.08153,0.203818 0.163054,0.02038 0.203817,-0.417826 0.377062,-0.815271 0.183436,-0.397444 0.264963,-0.611453 0.09172,-0.214009 0.295536,-0.723553 0.203818,-0.509544 0.305727,-0.754125 0.254772,-0.591072 0.275153,-0.591072 h 0.468781 q 0.183436,0 0.91718,-0.09172 0.07134,-0.01019 0,0.142673 -0.03057,0.06114 -0.06115,0.08153 -0.08153,0.03057 -0.163054,0.04076 -0.08153,0.01019 -0.132481,0.03057 -0.05096,0.02038 -0.132482,0.07134 -0.112099,0.08153 -0.112099,0.326109 0.01019,1.752832 0.132481,3.210128 0.01019,0.163054 0.163054,0.285345 0.214009,0.183436 0.468781,0.23439 0.05095,0.02038 0.06115,0.142673 0.01019,0.1121 -0.06115,0.1121 -0.09172,0 -0.366872,-0.02038 -0.275154,-0.02038 -0.468781,-0.02038 -0.254772,0 -0.672598,0.02038 -0.407635,0.02038 -0.45859,0.02038 -0.06115,0 -0.07134,-0.1121 -0.01019,-0.122291 0.04076,-0.142673 0.07134,-0.02038 0.12229,-0.03057 0.05096,-0.02038 0.08153,-0.04076 0.04076,-0.03057 0.05096,-0.04076 0.01019,-0.01019 0.04076,-0.04076 0.04076,-0.04076 0.06115,-0.06114 0.142672,-0.142673 0.142672,-0.305727 0.01019,-0.428017 -0.08153,-2.547721 -0.01019,-0.193627 -0.101909,0 -1.457297,3.098029 -1.549014,3.301847 z"
         style="font-style:normal;font-variant:normal;font-weight:normal;font-stretch:normal;font-size:10.19088459px;font-family:'EB Garamond 12 All SC';-inkscape-font-specification:'EB Garamond 12 All SC';letter-spacing:1.45785415px;stroke-width:0.26458332px"
         id="path92" />
      <path
         d="m 76.244074,35.553553 q 0.509544,0 0.896798,-0.2242 0.214008,-0.142672 0.214008,-0.570689 0,-0.06115 0.01019,-0.203818 0.01019,-0.152863 0,-0.23439 0,-0.08153 -0.03057,-0.122291 -0.09172,-0.101909 -0.315917,-0.152863 -0.214009,-0.06115 -0.366872,-0.06115 -0.09172,0 -0.142672,-0.264963 0,-0.08153 0.03057,-0.08153 0.214009,0 0.540117,0.02038 0.326109,0.01019 0.519735,0.01019 0.163055,0 0.417827,-0.01019 0.254772,-0.01019 0.377062,-0.01019 0.09172,0 0.09172,0.06115 0,0.244581 -0.07134,0.275153 -0.377063,0.1121 -0.397444,0.3363 -0.03057,0.285344 -0.03057,0.723552 0,0.03057 0.04076,0.1121 0.01019,0.02038 0.05095,0.06114 0.04076,0.03057 0.04076,0.05096 0,0.08153 -0.101909,0.132481 -0.519735,0.275154 -0.80508,0.356681 -0.529926,0.163054 -0.978325,0.163054 -1.03947,0 -1.803787,-0.682789 -0.754125,-0.69298 -0.754125,-1.701878 0,-1.008897 0.825462,-1.681495 0.835652,-0.68279 1.926077,-0.68279 0.723553,0 1.161761,0.142673 0.224199,0.07134 0.254772,0.203817 0.132481,0.529926 0.132481,0.794889 0,0.142673 -0.1121,0.142673 -0.101908,0 -0.193626,-0.06115 -0.09172,-0.06115 -0.1121,-0.132481 -0.1121,-0.315918 -0.23439,-0.468781 -0.275154,-0.305726 -1.049662,-0.295535 -0.743934,0.01019 -1.243287,0.550307 -0.499354,0.529926 -0.499354,1.324815 0,0.876416 0.468781,1.528633 0.478971,0.652217 1.243288,0.652217 z"
         style="font-style:normal;font-variant:normal;font-weight:normal;font-stretch:normal;font-size:10.19088459px;font-family:'EB Garamond 12 All SC';-inkscape-font-specification:'EB Garamond 12 All SC';letter-spacing:1.45785415px;stroke-width:0.26458332px"
         id="path94" />
      <path
         d="m 83.81646,35.808325 q -0.09172,0.173245 -0.203818,0.152863 -0.101909,-0.01019 -0.173245,-0.173245 -0.275154,-0.58088 -0.743934,-1.691687 -0.45859,-1.120997 -0.68279,-1.640732 -0.07134,-0.173245 -0.09172,0 -0.203817,1.987222 -0.23439,2.53753 0,0.193627 0.203818,0.397444 0.12229,0.132482 0.377062,0.193627 0.05096,0.01019 0.06115,0.132482 0.02038,0.1121 -0.06115,0.1121 -0.132481,0 -0.387253,-0.02038 -0.244581,-0.02038 -0.397445,-0.02038 -0.173245,0 -0.448399,0.02038 -0.264963,0.02038 -0.377062,0.02038 -0.06115,0 -0.06115,-0.1121 0.01019,-0.122291 0.06115,-0.132482 0.326108,-0.07134 0.448399,-0.163054 0.112099,-0.09172 0.132481,-0.264963 0.315917,-2.323522 0.315917,-3.098029 0,-0.254772 -0.112099,-0.387253 -0.142673,-0.163055 -0.591072,-0.264963 -0.09172,-0.02038 -0.06114,-0.183436 0.02038,-0.06115 0.05096,-0.06115 0.326108,0.05096 0.733743,0.05096 0.417827,0 0.580881,-0.01019 0.173245,-0.02038 0.254772,0.01019 1.120997,2.812684 1.406342,3.505664 0.08153,0.203818 0.163054,0.02038 0.203818,-0.417826 0.377063,-0.815271 0.183436,-0.397444 0.264963,-0.611453 0.09172,-0.214009 0.295535,-0.723553 0.203818,-0.509544 0.305727,-0.754125 0.254772,-0.591072 0.275154,-0.591072 h 0.46878 q 0.183436,0 0.91718,-0.09172 0.07134,-0.01019 0,0.142673 -0.03057,0.06114 -0.06114,0.08153 -0.08153,0.03057 -0.163054,0.04076 -0.08153,0.01019 -0.132482,0.03057 -0.05095,0.02038 -0.132481,0.07134 -0.1121,0.08153 -0.1121,0.326109 0.01019,1.752832 0.132481,3.210128 0.01019,0.163054 0.163055,0.285345 0.214008,0.183436 0.46878,0.23439 0.05096,0.02038 0.06115,0.142673 0.01019,0.1121 -0.06115,0.1121 -0.09172,0 -0.366872,-0.02038 -0.275153,-0.02038 -0.46878,-0.02038 -0.254772,0 -0.672599,0.02038 -0.407635,0.02038 -0.458589,0.02038 -0.06115,0 -0.07134,-0.1121 -0.01019,-0.122291 0.04076,-0.142673 0.07134,-0.02038 0.122291,-0.03057 0.05095,-0.02038 0.08153,-0.04076 0.04076,-0.03057 0.05095,-0.04076 0.01019,-0.01019 0.04076,-0.04076 0.04076,-0.04076 0.06114,-0.06114 0.142672,-0.142673 0.142672,-0.305727 0.01019,-0.428017 -0.08153,-2.547721 -0.01019,-0.193627 -0.101909,0 -1.457296,3.098029 -1.549014,3.301847 z"
         style="font-style:normal;font-variant:normal;font-weight:normal;font-stretch:normal;font-size:10.19088459px;font-family:'EB Garamond 12 All SC';-inkscape-font-specification:'EB Garamond 12 All SC';letter-spacing:1.45785415px;stroke-width:0.26458332px"
         id="path96" />
      <path
         d="m 91.949333,34.48351 q 0,-0.611453 -0.34649,-0.815271 -0.295536,-0.173245 -0.733744,-0.173245 -0.214009,0 -0.315917,0.08153 -0.08153,0.05095 -0.08153,0.173245 -0.02038,0.448399 0,1.233097 0.02038,0.264963 0.12229,0.366872 0.122291,0.142672 0.438208,0.142672 0.407636,0 0.662408,-0.275154 0.254772,-0.275153 0.254772,-0.733743 z m -1.019089,1.345197 q -0.05095,0 -0.407635,-0.03057 -0.356681,-0.03057 -0.529926,-0.03057 -0.163054,0 -0.519735,0.03057 -0.34649,0.02038 -0.428017,0.02038 -0.05096,0 -0.05096,-0.1121 0,-0.122291 0.05096,-0.132482 0.193627,-0.02038 0.275154,-0.04076 0.08153,-0.02038 0.183436,-0.1121 0.203817,-0.173245 0.203817,-0.428017 v -2.782112 q 0,-0.377062 -0.09172,-0.478971 -0.183436,-0.203818 -0.438208,-0.264963 -0.03057,-0.01019 -0.05095,-0.07134 -0.02038,-0.06115 -0.02038,-0.122291 0.01019,-0.06114 0.06114,-0.06114 0.142673,0 0.407636,0.01019 0.275154,0.01019 0.448399,0.01019 0.12229,0 0.407635,-0.02038 0.285345,-0.03057 0.509544,-0.03057 1.650924,0 1.650924,1.059852 0,0.489163 -0.2242,0.713362 -0.142672,0.132482 -0.58088,0.305727 -0.02038,0.01019 -0.03057,0.04076 0,0.02038 0.03057,0.03057 0.224199,0.07134 0.34649,0.12229 0.12229,0.05095 0.305726,0.173245 0.183436,0.122291 0.264963,0.3363 0.09172,0.203817 0.09172,0.489162 0,0.80508 -0.713362,1.202524 -0.275154,0.173246 -1.15157,0.173246 z m -0.458589,-2.894212 q 0.01019,0.163054 0.05095,0.203818 0.05095,0.04076 0.163054,0.05095 0.45859,0.04076 0.856034,-0.193626 0.295536,-0.173245 0.295536,-0.662408 0,-0.377063 -0.183436,-0.601262 -0.173245,-0.2242 -0.713362,-0.2242 -0.275154,0 -0.377062,0.07134 -0.09172,0.07134 -0.101909,0.244581 -0.01019,0.540117 0.01019,1.110806 z"
         style="font-style:normal;font-variant:normal;font-weight:normal;font-stretch:normal;font-size:10.19088459px;font-family:'EB Garamond 12 All SC';-inkscape-font-specification:'EB Garamond 12 All SC';letter-spacing:1.45785415px;stroke-width:0.26458332px"
         id="path98" />
      <path
         d="m 96.515407,33.158695 q 0,0.06114 0.101908,0.06114 1.487869,0.03057 2.486576,0 0.05096,0 0.05096,-0.08153 V 31.95617 q 0,-0.152863 -0.163055,-0.285344 -0.132481,-0.1121 -0.448398,-0.244582 -0.05095,-0.02038 -0.05095,-0.12229 0,-0.1121 0.05095,-0.1121 0.224199,0 0.509544,0.01019 0.285345,0.01019 0.46878,0.01019 0.193627,0 0.499353,-0.01019 0.30573,-0.01019 0.51974,-0.01019 0.0611,0 0.051,0.1121 0,0.101909 -0.051,0.12229 -0.35669,0.142673 -0.47898,0.254772 -0.142668,0.122291 -0.142668,0.275154 v 3.006311 q 0,0.244582 0.142668,0.377063 0.20382,0.183436 0.55031,0.244581 0.0815,0.02038 0.0815,0.132482 0,0.1121 -0.0815,0.1121 -0.20382,0 -0.54011,-0.03057 -0.336304,-0.02038 -0.550313,-0.02038 -0.203817,0 -0.529926,0.02038 -0.326108,0.03057 -0.519735,0.03057 -0.04076,0 -0.07134,-0.05096 -0.02038,-0.06114 -0.01019,-0.122291 0.02038,-0.06115 0.08153,-0.07134 0.366872,-0.07134 0.550308,-0.244581 0.132482,-0.122291 0.132482,-0.377063 v -1.314624 q 0,-0.05095 -0.04076,-0.05095 -1.538824,-0.03057 -2.568103,0 -0.03057,0 -0.03057,0.07134 v 1.294242 q 0,0.244582 0.142672,0.377063 0.203818,0.183436 0.540117,0.244581 0.09172,0.02038 0.09172,0.132482 0,0.1121 -0.09172,0.1121 -0.203818,0 -0.519735,-0.03057 -0.315918,-0.02038 -0.519735,-0.02038 -0.2242,0 -0.57069,0.02038 -0.336299,0.03057 -0.519735,0.03057 -0.04076,0 -0.07134,-0.05096 -0.02038,-0.06114 -0.01019,-0.122291 0.02038,-0.06115 0.08153,-0.07134 0.366872,-0.07134 0.550308,-0.244581 0.132481,-0.122291 0.132481,-0.377063 V 31.95617 q 0,-0.152863 -0.163054,-0.285344 -0.132481,-0.1121 -0.448399,-0.244582 -0.03057,-0.01019 -0.05095,-0.07134 -0.01019,-0.06114 0,-0.1121 0.02038,-0.05095 0.05095,-0.05095 0.2242,0 0.519735,0.01019 0.305727,0.01019 0.499354,0.01019 0.183435,0 0.46878,-0.01019 0.285345,-0.01019 0.499354,-0.01019 0.06115,0 0.06115,0.1121 0,0.101909 -0.06115,0.12229 -0.34649,0.142673 -0.468781,0.254772 -0.142672,0.101909 -0.142672,0.275154 z"
         style="font-style:normal;font-variant:normal;font-weight:normal;font-stretch:normal;font-size:10.19088459px;font-family:'EB Garamond 12 All SC';-inkscape-font-specification:'EB Garamond 12 All SC';letter-spacing:1.45785415px;stroke-width:0.26458332px"
         id="path100" />
    </g>
    <g
       aria-label="ÖHRCHENBAUM"
       style="font-style:normal;font-variant:normal;font-weight:normal;font-stretch:normal;font-size:11.34818172px;line-height:81.09999895%;font-family:'Linux Libertine O';-inkscape-font-specification:'Linux Libertine O';letter-spacing:4.36904955px;word-spacing:0px;fill:#000000;fill-opacity:1;stroke:none;stroke-width:0.26458332px;stroke-linecap:butt;stroke-linejoin:miter;stroke-opacity:1"
       id="text282">
      <path
         d="m 4.5249013,12.501483 q 0.1929191,-0.19292 0.4312309,-0.19292 0.2383118,0 0.4198827,0.19292 0.1929191,0.18157 0.1929191,0.419882 0,0.238312 -0.1929191,0.431231 -0.1815709,0.181571 -0.4198827,0.181571 -0.2383118,0 -0.4312309,-0.181571 -0.1815709,-0.192919 -0.1815709,-0.431231 0,-0.238312 0.1815709,-0.419882 z m 4.5733172,0 q 0.1929191,-0.19292 0.4312309,-0.19292 0.2383119,0 0.4198828,0.19292 0.1929188,0.18157 0.1929188,0.419882 0,0.238312 -0.1929188,0.431231 -0.1815709,0.181571 -0.4198828,0.181571 -0.2383118,0 -0.4312309,-0.181571 -0.1815709,-0.192919 -0.1815709,-0.431231 0,-0.238312 0.1815709,-0.419882 z m -3.9832117,4.164782 q 0,1.282345 0.6808909,2.326378 0.6808909,1.032684 1.7930127,1.032684 0.9418991,0 1.441219,-0.828417 0.49932,-0.839766 0.49932,-1.963236 0,-1.202907 -0.6128018,-2.144806 -0.6014536,-0.941899 -1.6454863,-0.941899 -0.9078546,0 -1.5320046,0.771676 -0.6241499,0.771677 -0.6241499,1.74762 z m 2.5873854,-3.041312 q 1.1575145,0 2.12211,1.021336 0.9759438,1.009988 0.9759438,2.24694 0,1.486612 -0.9759438,2.576037 -0.9645955,1.078077 -2.3944664,1.078077 -1.5433527,0 -2.564689,-0.975943 -1.0213364,-0.975944 -1.0213364,-2.507948 0,-1.588746 1.0667291,-2.507949 1.0780772,-0.93055 2.7916527,-0.93055 z"
         style="font-style:normal;font-variant:normal;font-weight:normal;font-stretch:normal;font-family:'EB Garamond';-inkscape-font-specification:'EB Garamond';letter-spacing:1.58749998px;stroke-width:0.26458332px"
         id="path53" />
      <path
         d="m 15.417902,17.392549 v 1.690879 q 0,0.351794 0.06809,0.533365 0.07944,0.170222 0.351794,0.283704 0.06809,0.03404 0.24966,0.102134 0.192919,0.05674 0.283704,0.113482 0.09079,0.04539 0.09079,0.12483 0,0.158874 -0.363142,0.192919 -0.0227,0 -0.226964,-0.0227 -0.204267,-0.01135 -0.49932,-0.0227 -0.295052,-0.0227 -0.533364,-0.0227 -0.238312,0 -0.544713,0.0227 -0.295053,0.01135 -0.510668,0.0227 -0.204267,0.0227 -0.226964,0.0227 -0.37449,-0.03405 -0.37449,-0.192919 0,-0.07944 0.09079,-0.12483 0.09078,-0.05674 0.272356,-0.113482 0.192919,-0.06809 0.261008,-0.102134 0.283705,-0.12483 0.408535,-0.306401 0.12483,-0.192919 0.12483,-0.510668 v -4.142086 q 0,-0.102134 -0.01135,-0.181571 0,-0.09079 -0.03404,-0.158875 -0.03405,-0.07944 -0.05674,-0.12483 -0.01135,-0.04539 -0.07944,-0.09078 -0.06809,-0.04539 -0.09079,-0.06809 -0.0227,-0.0227 -0.136178,-0.05674 -0.102133,-0.04539 -0.147526,-0.05674 -0.03404,-0.01135 -0.181571,-0.04539 -0.136178,-0.04539 -0.192919,-0.05674 -0.181571,-0.05674 -0.181571,-0.192919 0,-0.09079 0.12483,-0.147526 0.12483,-0.05674 0.272356,-0.05674 0.226964,0 0.635498,0.03404 0.419883,0.0227 0.62415,0.0227 0.204268,0 0.56741,-0.0227 0.37449,-0.03404 0.567409,-0.03404 0.147526,0 0.272356,0.05674 0.12483,0.05674 0.12483,0.147526 0,0.136178 -0.170223,0.192919 -0.567409,0.158875 -0.680891,0.261008 -0.147526,0.147527 -0.147526,0.578758 v 1.679531 q 0,0.12483 0.147526,0.12483 h 3.007269 q 0.147526,0 0.147526,-0.147527 v -1.656834 q 0,-0.453928 -0.136178,-0.567409 -0.136178,-0.12483 -0.680891,-0.272357 -0.181571,-0.05674 -0.181571,-0.192919 0,-0.09079 0.12483,-0.147526 0.12483,-0.05674 0.272356,-0.05674 0.226964,0 0.578758,0.03404 0.363141,0.0227 0.567409,0.0227 0.204267,0 0.62415,-0.0227 0.431231,-0.03404 0.62415,-0.03404 0.147526,0 0.272356,0.05674 0.12483,0.05674 0.12483,0.147526 0,0.136178 -0.170223,0.192919 -0.05674,0.01135 -0.204267,0.05674 -0.136178,0.03404 -0.181571,0.04539 -0.03404,0.01135 -0.147526,0.05674 -0.102134,0.03404 -0.136178,0.05674 -0.0227,0.0227 -0.09079,0.06809 -0.06809,0.04539 -0.09079,0.09078 -0.01135,0.04539 -0.04539,0.12483 -0.03404,0.06809 -0.04539,0.158875 0,0.07944 0,0.181571 v 4.142086 q 0,0.317749 0.12483,0.510668 0.12483,0.181571 0.408535,0.306401 0.06809,0.03404 0.24966,0.102134 0.192919,0.05674 0.283704,0.113482 0.09079,0.04539 0.09079,0.12483 0,0.158874 -0.363142,0.192919 -0.0227,0 -0.261008,-0.0227 -0.226964,-0.01135 -0.556061,-0.0227 -0.317749,-0.0227 -0.556061,-0.0227 -0.238312,0 -0.510668,0.0227 -0.272357,0.01135 -0.453928,0.0227 -0.18157,0.0227 -0.204267,0.0227 -0.37449,-0.03405 -0.37449,-0.192919 0,-0.07944 0.09079,-0.12483 0.09079,-0.05674 0.272356,-0.113482 0.192919,-0.06809 0.261008,-0.102134 0.272357,-0.113482 0.340446,-0.283704 0.07944,-0.181571 0.07944,-0.533365 v -1.668183 q 0,-0.12483 -0.158875,-0.12483 h -2.973223 q -0.01135,0 -0.0227,0 -0.147526,0 -0.147526,0.102134 z"
         style="font-style:normal;font-variant:normal;font-weight:normal;font-stretch:normal;font-family:'EB Garamond';-inkscape-font-specification:'EB Garamond';letter-spacing:1.58749998px;stroke-width:0.26458332px"
         id="path55" />
      <path
         d="m 27.525149,17.619513 q 1.06673,1.588745 2.12211,2.349073 0.181571,0.136178 0.646847,0.181571 0.192919,0.0227 0.192919,0.192919 0,0.147527 -0.238312,0.238312 -0.238312,0.102134 -0.556061,0.102134 -0.941899,0 -1.441219,-0.533365 -1.032684,-1.078077 -1.793013,-2.360422 -0.226963,-0.37449 -0.941899,-0.37449 -0.181571,0 -0.24966,0.06809 -0.06809,0.06809 -0.06809,0.238312 v 1.361782 q 0,0.317749 0.12483,0.510668 0.12483,0.181571 0.408535,0.306401 0.06809,0.03404 0.24966,0.102134 0.192919,0.05674 0.283704,0.113482 0.09079,0.04539 0.09079,0.12483 0,0.158874 -0.363142,0.192919 -0.0227,0 -0.261008,-0.0227 -0.226964,-0.01135 -0.556061,-0.0227 -0.317749,-0.0227 -0.556061,-0.0227 -0.215616,0 -0.510668,0.0227 -0.283705,0.01135 -0.49932,0.0227 -0.215616,0.0227 -0.238312,0.0227 -0.37449,-0.03405 -0.37449,-0.192919 0,-0.07944 0.09079,-0.12483 0.09079,-0.05674 0.272357,-0.113482 0.192919,-0.06809 0.261008,-0.102134 0.283704,-0.12483 0.408534,-0.306401 0.12483,-0.192919 0.12483,-0.510668 v -4.096694 q 0,-0.102133 -0.01135,-0.181571 0,-0.09079 -0.03404,-0.158874 -0.03404,-0.07944 -0.05674,-0.12483 -0.01135,-0.04539 -0.07944,-0.09079 -0.06809,-0.04539 -0.09079,-0.06809 -0.0227,-0.0227 -0.136178,-0.05674 -0.102134,-0.04539 -0.147526,-0.05674 -0.03404,-0.01135 -0.181571,-0.04539 -0.136179,-0.04539 -0.192919,-0.05674 -0.181571,-0.05674 -0.181571,-0.192919 0,-0.181571 0.397186,-0.204267 1.429871,-0.113482 2.473904,-0.113482 0.964595,0 1.690879,0.419882 0.726283,0.408535 0.726283,1.202908 0,0.941899 -0.896506,1.588745 -0.04539,0.03404 -0.09079,0.06809 -0.04539,0.0227 -0.06809,0.04539 -0.01135,0.01135 -0.0227,0.03405 -0.01135,0.0227 -0.01135,0.05674 0,0.147527 0.283704,0.56741 z m -1.861101,-0.612802 q 0.24966,0 0.49932,-0.06809 0.261008,-0.06809 0.340445,-0.158875 0.692239,-0.590105 0.692239,-1.350434 0,-0.55606 -0.431231,-0.919202 -0.419882,-0.37449 -0.99864,-0.37449 -0.238312,0 -0.408534,0.113482 -0.158875,0.113481 -0.158875,0.272356 v 2.190199 q 0,0.295053 0.465276,0.295053 z"
         style="font-style:normal;font-variant:normal;font-weight:normal;font-stretch:normal;font-family:'EB Garamond';-inkscape-font-specification:'EB Garamond';letter-spacing:1.58749998px;stroke-width:0.26458332px"
         id="path57" />
      <path
         d="m 36.375474,13.511471 q 0.522017,0 1.327738,0.226963 0.80572,0.226964 0.817069,0.226964 0.340445,0.03404 0.340445,1.2483 0,0.317749 -0.204267,0.317749 -0.238312,0 -0.453927,-0.714935 -0.113482,-0.351794 -0.760329,-0.567409 -0.635498,-0.226964 -1.293692,-0.226964 -1.100774,0 -1.861102,0.817069 -0.74898,0.805721 -0.74898,1.974584 0,1.339085 0.87381,2.315029 0.885158,0.964595 2.212895,0.964595 0.329098,0 0.578758,-0.06809 0.24966,-0.07944 0.453927,-0.272356 0.215615,-0.204268 0.329097,-0.340446 0.113482,-0.147526 0.329097,-0.476623 0.215616,-0.340446 0.317749,-0.487972 0.05674,-0.09079 0.204268,-0.09079 0.181571,0 0.181571,0.317749 0,0.12483 -0.453928,1.078078 -0.136178,0.295052 -0.226963,0.385838 -0.09079,0.09079 -0.295053,0.170223 -0.805721,0.283704 -1.883798,0.283704 -0.975944,0 -1.861102,-0.397186 -0.87381,-0.397187 -1.452567,-1.168863 -0.578757,-0.771676 -0.578757,-1.736272 0,-1.645486 1.191559,-2.712215 1.202907,-1.066729 2.916482,-1.066729 z"
         style="font-style:normal;font-variant:normal;font-weight:normal;font-stretch:normal;font-family:'EB Garamond';-inkscape-font-specification:'EB Garamond';letter-spacing:1.58749998px;stroke-width:0.26458332px"
         id="path59" />
      <path
         d="m 43.47817,17.392549 v 1.690879 q 0,0.351794 0.06809,0.533365 0.07944,0.170222 0.351793,0.283704 0.06809,0.03404 0.24966,0.102134 0.192919,0.05674 0.283705,0.113482 0.09078,0.04539 0.09078,0.12483 0,0.158874 -0.363142,0.192919 -0.0227,0 -0.226963,-0.0227 -0.204268,-0.01135 -0.49932,-0.0227 -0.295053,-0.0227 -0.533365,-0.0227 -0.238312,0 -0.544713,0.0227 -0.295052,0.01135 -0.510668,0.0227 -0.204267,0.0227 -0.226963,0.0227 -0.37449,-0.03405 -0.37449,-0.192919 0,-0.07944 0.09079,-0.12483 0.09079,-0.05674 0.272356,-0.113482 0.19292,-0.06809 0.261009,-0.102134 0.283704,-0.12483 0.408534,-0.306401 0.12483,-0.192919 0.12483,-0.510668 v -4.142086 q 0,-0.102134 -0.01135,-0.181571 0,-0.09079 -0.03404,-0.158875 -0.03404,-0.07944 -0.05674,-0.12483 -0.01135,-0.04539 -0.07944,-0.09078 -0.06809,-0.04539 -0.09078,-0.06809 -0.0227,-0.0227 -0.136178,-0.05674 -0.102134,-0.04539 -0.147527,-0.05674 -0.03404,-0.01135 -0.181571,-0.04539 -0.136178,-0.04539 -0.192919,-0.05674 -0.181571,-0.05674 -0.181571,-0.192919 0,-0.09079 0.12483,-0.147526 0.12483,-0.05674 0.272357,-0.05674 0.226963,0 0.635498,0.03404 0.419883,0.0227 0.62415,0.0227 0.204267,0 0.567409,-0.0227 0.37449,-0.03404 0.567409,-0.03404 0.147526,0 0.272356,0.05674 0.12483,0.05674 0.12483,0.147526 0,0.136178 -0.170222,0.192919 -0.567409,0.158875 -0.680891,0.261008 -0.147527,0.147527 -0.147527,0.578758 v 1.679531 q 0,0.12483 0.147527,0.12483 h 3.007268 q 0.147526,0 0.147526,-0.147527 v -1.656834 q 0,-0.453928 -0.136178,-0.567409 -0.136178,-0.12483 -0.680891,-0.272357 -0.181571,-0.05674 -0.181571,-0.192919 0,-0.09079 0.12483,-0.147526 0.12483,-0.05674 0.272357,-0.05674 0.226963,0 0.578757,0.03404 0.363142,0.0227 0.567409,0.0227 0.204267,0 0.62415,-0.0227 0.431231,-0.03404 0.62415,-0.03404 0.147526,0 0.272356,0.05674 0.12483,0.05674 0.12483,0.147526 0,0.136178 -0.170222,0.192919 -0.05674,0.01135 -0.204268,0.05674 -0.136178,0.03404 -0.181571,0.04539 -0.03404,0.01135 -0.147526,0.05674 -0.102134,0.03404 -0.136178,0.05674 -0.0227,0.0227 -0.09079,0.06809 -0.06809,0.04539 -0.09079,0.09078 -0.01135,0.04539 -0.04539,0.12483 -0.03404,0.06809 -0.04539,0.158875 0,0.07944 0,0.181571 v 4.142086 q 0,0.317749 0.12483,0.510668 0.12483,0.181571 0.408534,0.306401 0.06809,0.03404 0.24966,0.102134 0.192919,0.05674 0.283705,0.113482 0.09079,0.04539 0.09079,0.12483 0,0.158874 -0.363142,0.192919 -0.0227,0 -0.261008,-0.0227 -0.226964,-0.01135 -0.556061,-0.0227 -0.317749,-0.0227 -0.556061,-0.0227 -0.238312,0 -0.510668,0.0227 -0.272356,0.01135 -0.453927,0.0227 -0.181571,0.0227 -0.204267,0.0227 -0.37449,-0.03405 -0.37449,-0.192919 0,-0.07944 0.09078,-0.12483 0.09078,-0.05674 0.272356,-0.113482 0.192919,-0.06809 0.261009,-0.102134 0.272356,-0.113482 0.340445,-0.283704 0.07944,-0.181571 0.07944,-0.533365 v -1.668183 q 0,-0.12483 -0.158874,-0.12483 h -2.973224 q -0.01135,0 -0.0227,0 -0.147527,0 -0.147527,0.102134 z"
         style="font-style:normal;font-variant:normal;font-weight:normal;font-stretch:normal;font-family:'EB Garamond';-inkscape-font-specification:'EB Garamond';letter-spacing:1.58749998px;stroke-width:0.26458332px"
         id="path61" />
      <path
         d="m 53.293085,16.371213 q 0,0.351793 0.261008,0.351793 h 0.975944 q 0.170223,0 0.295053,-0.04539 0.136178,-0.04539 0.192919,-0.09079 0.06809,-0.05674 0.204267,-0.181571 0.03404,-0.03404 0.102134,-0.113482 0.07944,-0.09079 0.136178,-0.12483 0.05674,-0.04539 0.113482,-0.04539 0.12483,0 0.12483,0.226963 0,0.03404 -0.0227,0.306401 -0.0227,0.261008 -0.0227,0.351794 0,0.09079 0,0.340445 0.01135,0.24966 0.01135,0.306401 0,0.295053 -0.147526,0.295053 -0.04539,0 -0.09079,-0.03404 -0.04539,-0.03404 -0.09079,-0.09079 -0.03404,-0.05674 -0.06809,-0.102134 -0.0227,-0.04539 -0.06809,-0.113482 -0.03404,-0.07944 -0.04539,-0.09079 -0.147526,-0.238312 -0.397186,-0.238312 h -1.19156 q -0.158874,0 -0.215615,0.05674 -0.05674,0.05674 -0.05674,0.215615 v 1.906495 q 0,0.226964 0.09079,0.340445 0.102133,0.102134 0.340445,0.102134 h 1.588745 q 0.31775,0 0.522017,-0.04539 0.204267,-0.05674 0.363142,-0.226963 0.158874,-0.181571 0.226963,-0.306401 0.07944,-0.136178 0.238312,-0.476624 0.102134,-0.215615 0.306401,-0.215615 0.158875,0 0.158875,0.283704 0,0.215616 -0.170223,0.692239 -0.170223,0.465276 -0.261008,0.612802 -0.05674,0.102134 -0.07944,0.136178 -0.0227,0.03404 -0.07944,0.05674 -0.05674,0.0227 -0.147526,0.0227 -0.113482,0 -1.543353,-0.0227 -1.429871,-0.03404 -2.133458,-0.03404 -0.238312,0 -0.544713,0.01135 -0.295053,0.01135 -0.510668,0.0227 -0.204267,0.0227 -0.226964,0.0227 -0.37449,-0.03405 -0.37449,-0.192919 0,-0.07944 0.09079,-0.12483 0.09078,-0.05674 0.272356,-0.113482 0.192919,-0.06809 0.261008,-0.102134 0.283705,-0.12483 0.408535,-0.306401 0.12483,-0.192919 0.12483,-0.510668 v -4.142086 q 0,-0.102134 -0.01135,-0.181571 0,-0.09079 -0.03404,-0.158875 -0.03404,-0.07944 -0.05674,-0.12483 -0.01135,-0.04539 -0.07944,-0.09078 -0.06809,-0.04539 -0.09079,-0.06809 -0.0227,-0.0227 -0.136178,-0.05674 -0.102133,-0.04539 -0.147526,-0.05674 -0.03404,-0.01135 -0.181571,-0.04539 -0.136178,-0.04539 -0.192919,-0.05674 -0.181571,-0.05674 -0.181571,-0.192919 0,-0.204267 0.397186,-0.204267 h 3.256929 q 0.272356,0 0.771676,-0.0227 0.510668,-0.03404 0.578757,-0.03404 0.261008,0 0.295053,0.158874 0.102134,0.408535 0.102134,0.930551 0,0.295053 -0.181571,0.295053 -0.215616,0 -0.408535,-0.431231 -0.181571,-0.37449 -0.919203,-0.37449 h -1.350433 q -0.215616,0 -0.283705,0.05674 -0.06809,0.05674 -0.06809,0.181571 z"
         style="font-style:normal;font-variant:normal;font-weight:normal;font-stretch:normal;font-family:'EB Garamond';-inkscape-font-specification:'EB Garamond';letter-spacing:1.58749998px;stroke-width:0.26458332px"
         id="path63" />
      <path
         d="m 60.77027,18.94725 q 0,0.714935 0.533364,0.953247 0.06809,0.03404 0.24966,0.102134 0.192919,0.05674 0.283705,0.113482 0.09079,0.04539 0.09079,0.12483 0,0.158874 -0.363141,0.192919 -0.0227,0 -0.19292,-0.0227 -0.170222,-0.01135 -0.43123,-0.0227 -0.261009,-0.0227 -0.49932,-0.0227 -0.238312,0 -0.476624,0.0227 -0.238312,0.01135 -0.397186,0.0227 -0.147527,0.0227 -0.170223,0.0227 -0.37449,-0.03405 -0.37449,-0.192919 0,-0.07944 0.09079,-0.12483 0.09079,-0.05674 0.272357,-0.113482 0.192919,-0.06809 0.261008,-0.102134 0.533364,-0.238312 0.533364,-0.953247 v -2.961876 q 0,-0.907854 -0.158874,-1.100773 l -0.419883,-0.453928 q -0.102134,-0.102133 -0.283704,-0.204267 -0.170223,-0.102133 -0.283705,-0.170223 -0.113482,-0.07944 -0.113482,-0.170222 0,-0.12483 0.238312,-0.12483 h 1.191559 q 0.226964,0 0.601454,0.408534 l 3.778944,4.24422 q 0.07944,0.09079 0.147527,0.136178 0.06809,0.03404 0.113481,0.01135 0.05674,-0.03404 0.05674,-0.147527 v -3.472543 q 0,-0.12483 -0.0227,-0.215616 -0.01135,-0.102133 -0.03404,-0.170223 -0.01135,-0.06809 -0.07944,-0.12483 -0.05674,-0.05674 -0.07944,-0.07944 -0.0227,-0.03404 -0.136178,-0.07944 -0.113482,-0.04539 -0.158875,-0.05674 -0.03404,-0.01135 -0.204267,-0.05674 -0.158875,-0.04539 -0.215616,-0.05674 -0.18157,-0.05674 -0.18157,-0.192919 0,-0.09079 0.12483,-0.147526 0.12483,-0.05674 0.272356,-0.05674 0.226964,0 0.522016,0.03404 0.306401,0.0227 0.510668,0.0227 0.204268,0 0.510669,-0.0227 0.317749,-0.03404 0.510668,-0.03404 0.147526,0 0.272356,0.05674 0.12483,0.05674 0.12483,0.147526 0,0.136178 -0.170223,0.192919 -0.06809,0.0227 -0.204267,0.05674 -0.12483,0.03404 -0.181571,0.04539 -0.04539,0.01135 -0.147526,0.04539 -0.09079,0.03404 -0.12483,0.06809 -0.03405,0.0227 -0.102134,0.06809 -0.05674,0.03404 -0.07944,0.09078 -0.0227,0.04539 -0.05674,0.113482 -0.0227,0.06809 -0.03404,0.158875 -0.01135,0.07944 -0.01135,0.192919 v 4.527924 q 0,0.295053 0.01135,0.556061 0.0227,0.24966 0.0227,0.37449 0,0.136178 -0.226964,0.136178 -0.113482,0 -0.397186,-0.181571 -0.272356,-0.181571 -0.567409,-0.49932 L 60.985885,15.939982 Q 60.77027,15.70167 60.77027,16.053463 Z"
         style="font-style:normal;font-variant:normal;font-weight:normal;font-stretch:normal;font-family:'EB Garamond';-inkscape-font-specification:'EB Garamond';letter-spacing:1.58749998px;stroke-width:0.26458332px"
         id="path65" />
      <path
         d="m 70.698683,19.44657 q 0,0.522016 0.612802,0.522016 0.612801,0 0.964595,-0.419883 0.351794,-0.43123 0.351794,-1.044032 0,-0.726284 -0.37449,-1.055381 -0.363142,-0.340446 -1.214256,-0.340446 -0.340445,0 -0.340445,0.306401 z m 0,-5.027245 v 1.963236 q 0,0.226963 0.340445,0.226963 0.533365,0 0.964596,-0.37449 0.431231,-0.37449 0.431231,-0.885158 0,-0.578757 -0.351794,-0.907854 -0.351794,-0.329098 -0.862462,-0.329098 -0.329097,0 -0.431231,0.06809 -0.09078,0.05674 -0.09078,0.238312 z M 70.15397,13.70439 q 0.102134,0 0.62415,-0.0227 0.522016,-0.03404 0.805721,-0.03404 0.714935,0 1.270996,0.363142 0.556061,0.351793 0.556061,0.964595 0,0.601454 -0.272356,1.044033 -0.272356,0.431231 -0.760328,0.590105 -0.05674,0.0227 -0.07944,0.06809 -0.0227,0.03404 -0.01135,0.06809 0.0227,0.03404 0.06809,0.03404 0.669543,0.102134 1.100774,0.522016 0.431231,0.408535 0.431231,1.06673 0,1.009988 -0.74898,1.543352 -0.74898,0.522017 -1.940539,0.522017 -0.12483,0 -0.556061,-0.0227 -0.419883,-0.03404 -0.522016,-0.03404 -0.238312,0 -0.544713,0.01135 -0.295053,0.01135 -0.510668,0.0227 -0.204268,0.0227 -0.226964,0.0227 -0.37449,-0.03405 -0.37449,-0.192919 0,-0.07944 0.09078,-0.12483 0.09079,-0.05674 0.272357,-0.113482 0.192919,-0.06809 0.261008,-0.102134 0.533365,-0.238312 0.533365,-0.953247 v -4.005908 q 0,-0.102134 -0.01135,-0.181571 0,-0.09079 -0.03404,-0.158875 -0.03405,-0.07944 -0.05674,-0.12483 -0.01135,-0.04539 -0.07944,-0.09078 -0.06809,-0.04539 -0.09079,-0.06809 -0.0227,-0.0227 -0.136178,-0.05674 -0.102134,-0.04539 -0.147526,-0.05674 -0.03404,-0.01135 -0.181571,-0.04539 -0.136178,-0.04539 -0.192919,-0.05674 -0.181571,-0.05674 -0.181571,-0.192919 0,-0.204267 0.397186,-0.204267 z"
         style="font-style:normal;font-variant:normal;font-weight:normal;font-stretch:normal;font-family:'EB Garamond';-inkscape-font-specification:'EB Garamond';letter-spacing:1.58749998px;stroke-width:0.26458332px"
         id="path67" />
      <path
         d="m 78.459578,17.32446 q -0.06809,0.136178 -0.05674,0.192919 0.0227,0.04539 0.158874,0.04539 h 1.384478 q 0.170223,0 0.19292,-0.06809 0.0227,-0.06809 -0.06809,-0.340446 l -0.692239,-2.12211 q -0.04539,-0.158874 -0.12483,0.03405 z m 3.234231,3.041313 q -0.419882,0 -0.907854,0.03404 -0.487972,0.03405 -0.612802,0.03405 -0.12483,0 -0.24966,-0.04539 -0.113482,-0.05674 -0.113482,-0.147526 0,-0.07944 0.07944,-0.12483 0.09078,-0.05674 0.272356,-0.113482 0.192919,-0.06809 0.261008,-0.102134 0.442579,-0.204267 0.329097,-0.601454 l -0.329097,-1.078077 q -0.04539,-0.136178 -0.181571,-0.136178 h -1.895146 q -0.136178,0 -0.181571,0.12483 l -0.431231,1.236952 q -0.12483,0.37449 0.24966,0.476623 0.419883,0.113482 0.419883,0.31775 0,0.192919 -0.397187,0.192919 -0.113481,0 -0.476623,-0.03405 -0.351794,-0.03404 -0.453928,-0.03404 -0.158874,0 -0.408534,0.03404 -0.238312,0.03405 -0.306401,0.03405 -0.37449,0 -0.37449,-0.192919 0,-0.07944 0.09078,-0.12483 0.09079,-0.05674 0.272357,-0.113482 0.192919,-0.06809 0.261008,-0.102134 0.05674,-0.0227 0.102134,-0.04539 0.04539,-0.0227 0.07944,-0.04539 0.03404,-0.0227 0.06809,-0.04539 0.03405,-0.03404 0.04539,-0.04539 0.0227,-0.01135 0.04539,-0.05674 0.0227,-0.04539 0.03404,-0.05674 0.01135,-0.01135 0.03405,-0.06809 0.03404,-0.06809 0.03404,-0.09079 0.01135,-0.0227 0.04539,-0.102134 0.03404,-0.09079 0.04539,-0.136178 l 1.736271,-4.800281 q 0.04539,-0.12483 0.09079,-0.24966 0.04539,-0.12483 0.06809,-0.181571 0.0227,-0.06809 0.04539,-0.113482 0.0227,-0.05674 0.04539,-0.07944 0.03405,-0.0227 0.06809,-0.0227 0.12483,-0.01135 0.295053,-0.170223 0.170223,-0.170223 0.192919,-0.170223 0.05674,0 0.102134,0.04539 0.04539,0.03405 0.07944,0.12483 0.04539,0.07944 0.06809,0.158875 0.03404,0.07944 0.07944,0.238311 0.05674,0.158875 0.09078,0.24966 l 1.49796,4.232872 q 0.272356,0.74898 0.442579,1.021337 0.170223,0.261008 0.567409,0.408534 0.453927,0.158875 0.453927,0.351794 0,0.181571 -0.329097,0.181571 -0.113482,0 -0.476623,-0.03405 -0.363142,-0.03404 -0.56741,-0.03404 z"
         style="font-style:normal;font-variant:normal;font-weight:normal;font-stretch:normal;font-family:'EB Garamond';-inkscape-font-specification:'EB Garamond';letter-spacing:1.58749998px;stroke-width:0.26458332px"
         id="path69" />
      <path
         d="m 91.066138,14.82786 v 2.74626 q 0,1.316389 -0.783024,2.110762 -0.783025,0.794372 -2.042673,0.794372 -1.429871,0 -1.99728,-0.726283 Q 85.6871,19.015339 85.6871,17.596816 v -2.655474 q 0,-0.397187 -0.12483,-0.522017 -0.12483,-0.136178 -0.669543,-0.317749 -0.181571,-0.05674 -0.181571,-0.192919 0,-0.09079 0.12483,-0.147526 0.12483,-0.05674 0.272357,-0.05674 0.226963,0 0.453927,0.03404 0.238312,0.0227 0.442579,0.0227 0.204267,0 0.646846,-0.0227 0.453928,-0.03404 0.646847,-0.03404 0.147526,0 0.272356,0.05674 0.12483,0.05674 0.12483,0.147526 0,0.136178 -0.170223,0.192919 -0.385838,0.12483 -0.578757,0.306401 -0.181571,0.181571 -0.181571,0.510668 v 2.269637 q 0,1.441219 0.351794,2.088065 0.363142,0.635498 1.361782,0.635498 1.100773,0 1.520656,-0.74898 0.419883,-0.74898 0.419883,-2.201547 v -2.110762 q 0,-0.295053 -0.06809,-0.431231 -0.06809,-0.136178 -0.147527,-0.170222 -0.06809,-0.03404 -0.385838,-0.136179 -0.192919,-0.06809 -0.192919,-0.204267 0,-0.09079 0.12483,-0.147526 0.12483,-0.05674 0.272356,-0.05674 0.09079,0 0.37449,0.03404 0.283705,0.0227 0.363142,0.0227 0.07944,0 0.363142,-0.0227 0.283705,-0.03404 0.363142,-0.03404 0.147526,0 0.272356,0.05674 0.12483,0.05674 0.12483,0.147526 0,0.12483 -0.192919,0.192919 -0.397186,0.12483 -0.510668,0.261008 -0.113482,0.136179 -0.113482,0.465276 z"
         style="font-style:normal;font-variant:normal;font-weight:normal;font-stretch:normal;font-family:'EB Garamond';-inkscape-font-specification:'EB Garamond';letter-spacing:1.58749998px;stroke-width:0.26458332px"
         id="path71" />
      <path
         d="m 101.36903,18.94725 q 0.0454,0.737632 0.53337,0.953247 0.0681,0.03404 0.24966,0.102134 0.19291,0.05674 0.2837,0.113482 0.0908,0.04539 0.0908,0.12483 0,0.158874 -0.36315,0.192919 -0.0227,0 -0.261,-0.0227 -0.22697,-0.01135 -0.55607,-0.0227 -0.31774,-0.0227 -0.55606,-0.0227 -0.23831,0 -0.54471,0.0227 -0.295052,0.01135 -0.510667,0.0227 -0.204268,0.0227 -0.226964,0.0227 -0.37449,-0.03405 -0.37449,-0.192919 0,-0.07944 0.09079,-0.12483 0.09078,-0.05674 0.272356,-0.113482 0.192919,-0.06809 0.261008,-0.102134 0.567411,-0.24966 0.533361,-0.953247 l -0.14752,-3.574677 q -0.0113,-0.19292 -0.147529,-0.136179 -0.09079,0.05674 -0.147526,0.170223 l -1.532005,3.517936 q -0.09079,0.204268 -0.329097,0.646847 -0.226964,0.431231 -0.295053,0.431231 -0.09079,0 -0.181571,-0.136178 -0.09078,-0.136179 -0.261008,-0.56741 l -1.395826,-3.574677 q -0.07944,-0.204267 -0.147527,-0.24966 -0.05674,-0.04539 -0.09078,0.03405 -0.03405,0.06809 -0.04539,0.226963 l -0.192919,3.166143 q -0.0227,0.283705 0.05674,0.601454 0.09078,0.306401 0.295053,0.397186 0.06809,0.03404 0.24966,0.102134 0.192919,0.05674 0.283704,0.113482 0.09079,0.04539 0.09079,0.12483 0,0.158874 -0.363142,0.192919 -0.0227,0 -0.192919,-0.0227 -0.170223,-0.01135 -0.431231,-0.0227 -0.261008,-0.0227 -0.49932,-0.0227 -0.238312,0 -0.476624,0.0227 -0.238312,0.01135 -0.397186,0.0227 -0.147527,0.0227 -0.170223,0.0227 -0.37449,-0.03405 -0.37449,-0.192919 0,-0.07944 0.07944,-0.12483 0.09079,-0.05674 0.283705,-0.113482 0.192919,-0.06809 0.261008,-0.102134 0.522016,-0.226964 0.658195,-1.191559 l 0.385838,-3.018616 q 0.06809,-0.556061 -0.0227,-0.805721 -0.09078,-0.24966 -0.340445,-0.476624 -0.06809,-0.06809 -0.238312,-0.170223 -0.170223,-0.113481 -0.272356,-0.204267 -0.102134,-0.09078 -0.102134,-0.170223 0,-0.158874 0.385838,-0.158874 0.192919,0 0.590106,0.03404 0.397186,0.0227 0.669542,0.0227 0.226964,0 0.385839,0.170222 0.170222,0.158875 0.329097,0.544713 l 1.327737,3.256928 q 0.04539,0.12483 0.06809,0.158875 0.0227,0.03404 0.05674,0.07944 0.04539,0.03405 0.102134,-0.0227 0.05674,-0.06809 0.12483,-0.226964 l 1.781664,-3.699507 q 0.09078,-0.181571 0.204264,-0.215616 0.11349,-0.04539 0.37449,-0.04539 0.13618,0 0.69224,-0.05674 0.55606,-0.05674 0.74898,-0.05674 0.18157,0 0.18157,0.192919 0,0.07944 -0.0908,0.136178 -0.0794,0.04539 -0.45393,0.204267 -0.27236,0.113482 -0.37449,0.329098 -0.0908,0.215615 -0.0681,0.692239 z"
         style="font-style:normal;font-variant:normal;font-weight:normal;font-stretch:normal;font-family:'EB Garamond';-inkscape-font-specification:'EB Garamond';letter-spacing:1.58749998px;stroke-width:0.26458332px"
         id="path73" />
    </g>
    <g
       aria-label="by"
       style="font-style:normal;font-variant:normal;font-weight:normal;font-stretch:normal;font-size:5.64444447px;line-height:81.09999895%;font-family:'Linux Libertine O';-inkscape-font-specification:'Linux Libertine O';letter-spacing:2.84224987px;word-spacing:0px;fill:#000000;fill-opacity:1;stroke:none;stroke-width:0.17212254px;stroke-linecap:butt;stroke-linejoin:miter;stroke-opacity:1"
       id="text286">
      <path
         d="m 51.030564,27.078646 q 0,0.135466 0.08467,0.237066 0.09031,0.09596 0.191911,0.09596 0.3556,0 0.688622,-0.496711 0.333022,-0.502356 0.333022,-1.049867 0,-0.265289 -0.163689,-0.265289 -0.259644,0 -0.536222,0.287867 -0.276578,0.287867 -0.440267,0.632178 -0.158044,0.344311 -0.158044,0.5588 z m 0.412044,-1.349023 q 0.231423,-0.214488 0.502356,-0.349955 0.270933,-0.135467 0.451556,-0.135467 0.169333,0 0.287866,0.158045 0.124178,0.1524 0.124178,0.349955 0,0.485422 -0.282222,0.959556 -0.276578,0.474133 -0.671689,0.756355 -0.389467,0.282223 -0.728133,0.282223 -0.208845,0 -0.372534,-0.163689 -0.158044,-0.163689 -0.158044,-0.378178 0,-0.135467 0.06773,-0.4064 l 0.570089,-2.280356 q 0.0508,-0.214489 0.0508,-0.259644 0,-0.01693 -0.197556,-0.09031 -0.197555,-0.07338 -0.197555,-0.118534 0,-0.06209 0.293511,-0.146755 0.299156,-0.08467 0.445911,-0.08467 0.135467,0 0.135467,0.141111 0,0.129823 -0.08467,0.479778 l -0.299155,1.196622 q -0.01693,0.07338 -0.01129,0.107245 0.0056,0.02822 0.07338,-0.01693 z"
         style="font-style:italic;font-variant:normal;font-weight:normal;font-stretch:normal;font-size:5.64444447px;font-family:'EB Garamond';-inkscape-font-specification:'EB Garamond Italic';letter-spacing:0.51636761px;stroke-width:0.17212254px"
         id="path48" />
      <path
         d="m 54.419947,25.96669 q -0.04516,-0.282222 -0.220133,-0.282222 -0.09031,0 -0.197556,0.1016 -0.1016,0.1016 -0.186266,0.208844 -0.07902,0.1016 -0.107245,0.1016 -0.06209,0 -0.06209,-0.135466 0,-0.135467 0.214489,-0.423334 0.220134,-0.293511 0.474134,-0.293511 0.174977,0 0.310444,0.146756 0.141111,0.146755 0.197556,0.4064 0.08467,0.412044 0.01693,1.190978 -0.0056,0.07338 0,0.107244 0.01129,0.02822 0.03387,0.01129 0.02258,-0.02258 0.0508,-0.08467 0.163688,-0.3556 0.293511,-0.790222 0.129822,-0.440267 0.1524,-0.637822 0.05644,-0.378178 0.208844,-0.378178 0.06209,0 0.118533,0.09031 0.05644,0.09031 0.05644,0.191911 0,0.06773 -0.09596,0.395111 -0.09595,0.321734 -0.293511,0.829734 -0.191911,0.508 -0.4064,0.920044 -0.129822,0.254 -0.220133,0.412045 -0.08467,0.163688 -0.248356,0.400755 -0.158044,0.242711 -0.3048,0.383822 -0.141111,0.141111 -0.338666,0.248356 -0.191911,0.107244 -0.395111,0.107244 -0.389467,0 -0.389467,-0.299155 0,-0.09031 0.09031,-0.174978 0.08467,-0.08467 0.174978,-0.08467 0.03387,0 0.158044,0.1016 0.124178,0.107245 0.220134,0.107245 0.163688,0 0.316088,-0.191911 0.1524,-0.191911 0.248356,-0.479778 0.09596,-0.282222 0.1524,-0.592667 0.06209,-0.316089 0.06209,-0.575733 0,-0.536222 -0.08467,-1.038578 z"
         style="font-style:italic;font-variant:normal;font-weight:normal;font-stretch:normal;font-size:5.64444447px;font-family:'EB Garamond';-inkscape-font-specification:'EB Garamond Italic';letter-spacing:0.51636761px;stroke-width:0.17212254px"
         id="path50" />
    </g>
  </g>
</svg>
