<?xml version="1.0" encoding="UTF-8" standalone="no"?>
<svg
   xmlns:dc="http://purl.org/dc/elements/1.1/"
   xmlns:cc="http://creativecommons.org/ns#"
   xmlns:rdf="http://www.w3.org/1999/02/22-rdf-syntax-ns#"
   xmlns:svg="http://www.w3.org/2000/svg"
   xmlns="http://www.w3.org/2000/svg"
   xmlns:sodipodi="http://sodipodi.sourceforge.net/DTD/sodipodi-0.dtd"
   xmlns:inkscape="http://www.inkscape.org/namespaces/inkscape"
   width="95.016762mm"
   height="4.8835745mm"
   viewBox="0 0 95.016762 4.8835745"
   version="1.1"
   id="svg254"
   inkscape:version="1.0.1 (3bc2e813f5, 2020-09-07)"
   sodipodi:docname="Ohrenbaum.svg">
  <defs
     id="defs248" />
  <sodipodi:namedview
     id="base"
     pagecolor="#ffffff"
     bordercolor="#666666"
     borderopacity="1.0"
     inkscape:pageopacity="0.0"
     inkscape:pageshadow="2"
     inkscape:zoom="1.4"
     inkscape:cx="247.90179"
     inkscape:cy="-4.6538184"
     inkscape:document-units="mm"
     inkscape:current-layer="layer1"
     showgrid="false"
     inkscape:window-width="1920"
     inkscape:window-height="1015"
     inkscape:window-x="0"
     inkscape:window-y="0"
     inkscape:window-maximized="1"
     fit-margin-top="0"
     fit-margin-left="0"
     fit-margin-right="0"
     fit-margin-bottom="0"
     inkscape:document-rotation="0" />
  <metadata
     id="metadata251">
    <rdf:RDF>
      <cc:Work
         rdf:about="">
        <dc:format>image/svg+xml</dc:format>
        <dc:type
           rdf:resource="http://purl.org/dc/dcmitype/StillImage" />
        <dc:title></dc:title>
      </cc:Work>
    </rdf:RDF>
  </metadata>
  <g
     inkscape:label="Ebene 1"
     inkscape:groupmode="layer"
     id="layer1"
     transform="translate(-5.6768866,-31.079759)">
    <g
       aria-label="OHRENBAUM GmBH"
       style="font-style:normal;font-variant:normal;font-weight:normal;font-stretch:normal;font-size:10.7445px;line-height:81.1%;font-family:'Linux Libertine O';-inkscape-font-specification:'Linux Libertine O';letter-spacing:2.14889px;word-spacing:0px;fill:#000000;fill-opacity:1;stroke:none;stroke-width:0.264583px;stroke-linecap:butt;stroke-linejoin:miter;stroke-opacity:1"
       id="text3939">
      <path
         d="m 5.6768866,33.586712 q 0,-0.947752 0.7235528,-1.691687 0.7235528,-0.743935 1.6916868,-0.743935 1.0394703,0 1.7834048,0.692981 0.754125,0.682789 0.754125,1.701877 0,0.998707 -0.6725979,1.701878 -0.6725984,0.703171 -1.8649319,0.703171 -1.0190884,0 -1.7222595,-0.682789 -0.6929801,-0.69298 -0.6929801,-1.681496 z m 2.3540943,-2.109513 q -0.7846981,0 -1.1413791,0.560498 -0.34649,0.560499 -0.34649,1.396152 0,0.937561 0.438208,1.538823 0.4483989,0.601262 1.2738606,0.601262 0.4178262,0 0.7235528,-0.183436 0.3159174,-0.183435 0.4789716,-0.478971 0.1630541,-0.305727 0.2343903,-0.621644 0.081527,-0.326108 0.081527,-0.652217 0,-0.866225 -0.4483989,-1.508251 -0.4382081,-0.652216 -1.2942423,-0.652216 z"
         style="font-style:normal;font-variant:normal;font-weight:normal;font-stretch:normal;font-size:10.1909px;font-family:'EB Garamond 12 All SC';-inkscape-font-specification:'EB Garamond 12 All SC';letter-spacing:1.45785px;stroke-width:0.264583px"
         id="path76" />
      <path
         d="m 14.298928,33.158695 q 0,0.06114 0.101909,0.06114 1.487869,0.03057 2.486576,0 0.05095,0 0.05095,-0.08153 V 31.95617 q 0,-0.152863 -0.163054,-0.285344 -0.132481,-0.1121 -0.448399,-0.244582 -0.05095,-0.02038 -0.05095,-0.12229 0,-0.1121 0.05095,-0.1121 0.2242,0 0.509544,0.01019 0.285345,0.01019 0.468781,0.01019 0.193627,0 0.499353,-0.01019 0.305727,-0.01019 0.519736,-0.01019 0.06114,0 0.05095,0.1121 0,0.101909 -0.05095,0.12229 -0.356681,0.142673 -0.478972,0.254772 -0.142672,0.122291 -0.142672,0.275154 v 3.006311 q 0,0.244582 0.142672,0.377063 0.203818,0.183436 0.550308,0.244581 0.08153,0.02038 0.08153,0.132482 0,0.1121 -0.08153,0.1121 -0.203818,0 -0.540117,-0.03057 -0.336299,-0.02038 -0.550308,-0.02038 -0.203818,0 -0.529926,0.02038 -0.326108,0.03057 -0.519735,0.03057 -0.04076,0 -0.07134,-0.05096 -0.02038,-0.06114 -0.01019,-0.122291 0.02038,-0.06115 0.08153,-0.07134 0.366872,-0.07134 0.550308,-0.244581 0.132481,-0.122291 0.132481,-0.377063 v -1.314624 q 0,-0.05095 -0.04076,-0.05095 -1.538824,-0.03057 -2.568103,0 -0.03057,0 -0.03057,0.07134 v 1.294242 q 0,0.244582 0.142673,0.377063 0.203817,0.183436 0.540116,0.244581 0.09172,0.02038 0.09172,0.132482 0,0.1121 -0.09172,0.1121 -0.203817,0 -0.519735,-0.03057 -0.315917,-0.02038 -0.519735,-0.02038 -0.224199,0 -0.570689,0.02038 -0.3363,0.03057 -0.519735,0.03057 -0.04076,0 -0.07134,-0.05096 -0.02038,-0.06114 -0.01019,-0.122291 0.02038,-0.06115 0.08153,-0.07134 0.366871,-0.07134 0.550307,-0.244581 0.132482,-0.122291 0.132482,-0.377063 V 31.95617 q 0,-0.152863 -0.163054,-0.285344 -0.132482,-0.1121 -0.448399,-0.244582 -0.03057,-0.01019 -0.05096,-0.07134 -0.01019,-0.06114 0,-0.1121 0.02038,-0.05095 0.05096,-0.05095 0.224199,0 0.519735,0.01019 0.305726,0.01019 0.499353,0.01019 0.183436,0 0.468781,-0.01019 0.285345,-0.01019 0.499353,-0.01019 0.06115,0 0.06115,0.1121 0,0.101909 -0.06115,0.12229 -0.34649,0.142673 -0.46878,0.254772 -0.142673,0.101909 -0.142673,0.275154 z"
         style="font-style:normal;font-variant:normal;font-weight:normal;font-stretch:normal;font-size:10.1909px;font-family:'EB Garamond 12 All SC';-inkscape-font-specification:'EB Garamond 12 All SC';letter-spacing:1.45785px;stroke-width:0.264583px"
         id="path78" />
      <path
         d="m 21.850927,33.872057 q 0.01019,0.23439 0.02038,0.611453 0.01019,0.366872 0.01019,0.489162 0.01019,0.407636 0.662407,0.57069 0.05095,0.02038 0.05095,0.163054 0,0.132481 -0.05095,0.132481 -0.04076,0 -0.397445,-0.03057 -0.35668,-0.03057 -0.58088,-0.03057 -0.254772,0 -0.672598,0.03057 -0.407636,0.03057 -0.468781,0.03057 -0.05095,0 -0.05095,-0.12229 0,-0.122291 0.05095,-0.132482 0.295536,-0.07134 0.45859,-0.23439 0.203818,-0.183436 0.203818,-0.417826 v -2.720967 q 0,-0.407635 -0.09172,-0.509544 -0.101909,-0.112099 -0.173245,-0.142672 -0.06115,-0.04076 -0.264963,-0.09172 -0.03057,-0.01019 -0.05096,-0.07134 -0.02038,-0.06115 -0.02038,-0.122291 0.01019,-0.06114 0.06115,-0.06114 0.142672,0 0.438208,0.02038 0.295535,0.01019 0.489162,0.01019 0.1121,0 0.366872,-0.03057 0.264963,-0.03057 0.489162,-0.03057 0.794889,0 1.284052,0.326108 0.489162,0.315918 0.489162,0.876417 0,0.214008 -0.132481,0.489162 -0.122291,0.275154 -0.2242,0.366872 -0.203817,0.203818 -0.407635,0.295535 -0.04076,0.01019 0,0.06115 0.122291,0.183436 0.34649,0.58088 0.23439,0.387254 0.428017,0.662408 0.203818,0.264963 0.489163,0.540117 0.101909,0.101908 0.193626,0.152863 0.101909,0.04076 0.152864,0.05095 0.06114,0.01019 0.203817,0.01019 0.142673,-0.01019 0.214009,-0.01019 0.03057,0 0.04076,0.04076 0.01019,0.04076 -0.01019,0.09172 -0.02038,0.05095 -0.05096,0.07134 -0.224199,0.152863 -0.499353,0.152863 -0.80508,0 -1.131188,-0.387253 -0.122291,-0.152864 -0.2242,-0.295536 -0.101909,-0.142672 -0.163054,-0.244581 -0.06114,-0.1121 -0.224199,-0.377063 -0.152864,-0.264963 -0.285345,-0.478972 -0.122291,-0.183435 -0.305727,-0.275153 -0.254772,-0.132482 -0.560498,-0.152864 -0.05096,-0.01019 -0.08153,0.03057 -0.02038,0.04076 -0.02038,0.1121 z m 0,-0.703171 q 0,0.132481 0.05095,0.193626 0.05096,0.05095 0.09172,0.06115 0.05096,0 0.193627,0 0.438208,0 0.743935,-0.203818 0.315917,-0.193627 0.315917,-0.825462 0,-0.917179 -0.91718,-0.917179 -0.264963,0 -0.356681,0.101909 -0.08153,0.09172 -0.09172,0.285344 -0.04076,0.937562 -0.03057,1.304434 z"
         style="font-style:normal;font-variant:normal;font-weight:normal;font-stretch:normal;font-size:10.1909px;font-family:'EB Garamond 12 All SC';-inkscape-font-specification:'EB Garamond 12 All SC';letter-spacing:1.45785px;stroke-width:0.264583px"
         id="path80" />
      <path
         d="m 29.902272,33.596903 q -0.489162,-0.07134 -0.876416,-0.01019 -0.173245,0.02038 -0.173245,0.173245 0,0.326108 0.02038,1.120997 0.02038,0.519735 0.438208,0.519735 h 0.896798 q 0.05095,0 0.23439,-0.04076 0.193627,-0.04076 0.254772,-0.08153 0.183436,-0.152864 0.326109,-0.468781 0.03057,-0.07134 0.152863,-0.07134 0.09172,0 0.09172,0.08153 -0.04076,0.407635 -0.173245,0.876416 -0.02038,0.122291 -0.09172,0.122291 -0.519735,0 -1.345197,-0.02038 -0.815271,-0.03057 -1.131188,-0.03057 l -1.090425,0.06115 q -0.02038,0 -0.04076,-0.06115 -0.01019,-0.06115 0,-0.12229 0.01019,-0.06115 0.04076,-0.06115 0.326109,-0.09172 0.45859,-0.214008 0.193627,-0.173245 0.193627,-0.377063 v -2.833066 q 0,-0.417826 -0.09172,-0.509544 -0.03057,-0.03057 -0.05095,-0.05096 -0.02038,-0.03057 -0.05096,-0.04076 -0.02038,-0.02038 -0.04076,-0.03057 -0.01019,-0.01019 -0.05096,-0.02038 -0.04076,-0.02038 -0.06114,-0.02038 -0.02038,-0.01019 -0.08153,-0.03057 -0.06115,-0.02038 -0.101909,-0.03057 -0.05095,-0.01019 -0.06114,-0.112099 0,-0.101909 0.06114,-0.101909 0.142672,0 0.397444,0.01019 0.264963,0.01019 0.428018,0.01019 0.397444,0 0.968134,-0.01019 0.570689,-0.01019 0.957943,-0.01019 0.397444,-0.01019 0.46878,-0.01019 0.1121,0 0.122291,0.06115 0.1121,0.580881 0.1121,0.937562 0,0.06114 -0.1121,0.06114 -0.05095,0 -0.08153,-0.07134 -0.09172,-0.275154 -0.203818,-0.387254 -0.152863,-0.183436 -0.428017,-0.183436 h -1.080234 q -0.06114,0 -0.112099,0.06114 -0.05096,0.05096 -0.06115,0.122291 -0.05095,0.285345 -0.06114,0.540117 -0.02038,0.672598 -0.02038,0.723553 0,0.152863 0.07134,0.152863 h 0.886607 q 0.193627,0 0.305727,-0.101909 0.09172,-0.09172 0.122291,-0.183436 0.09172,-0.132481 0.142672,-0.132481 0.03057,0 0.06114,0.04076 0.04076,0.03057 0.03057,0.07134 -0.03057,0.407635 0,1.029279 0.02038,0.12229 -0.06114,0.12229 -0.09172,0 -0.183436,-0.193626 -0.06115,-0.2242 -0.326109,-0.275154 z"
         style="font-style:normal;font-variant:normal;font-weight:normal;font-stretch:normal;font-size:10.1909px;font-family:'EB Garamond 12 All SC';-inkscape-font-specification:'EB Garamond 12 All SC';letter-spacing:1.45785px;stroke-width:0.264583px"
         id="path82" />
      <path
         d="m 33.714215,35.828707 q -0.06115,0 -0.06115,-0.1121 0.01019,-0.122291 0.06115,-0.132482 0.305727,-0.05095 0.407636,-0.163054 0.132481,-0.142672 0.152863,-0.448399 0.07134,-1.294242 0.07134,-2.853447 0,-0.295536 -0.06114,-0.366872 -0.203818,-0.244582 -0.652217,-0.285345 -0.07134,0 -0.07134,-0.122291 0,-0.12229 0.07134,-0.12229 0.05095,0.01019 0.743935,0.01019 0.703171,-0.01019 0.723553,-0.01019 0.04076,0 0.06115,0.02038 0.02038,0.02038 0.05095,0.07134 0.03057,0.04076 0.05096,0.06114 0.326108,0.387254 1.212715,1.487869 0.896798,1.090425 1.538824,1.813978 0.01019,0.01019 0.03057,0.05095 0.03057,0.03057 0.05096,0.05095 0.02038,0.02038 0.04076,0.03057 0.03057,0.01019 0.04076,-0.02038 0.02038,-0.03057 0.02038,-0.112099 0.03057,-0.906989 -0.03057,-2.731158 0,-0.09172 -0.06115,-0.163054 -0.06114,-0.08153 -0.163054,-0.132481 -0.09172,-0.05096 -0.173245,-0.08153 -0.08153,-0.03057 -0.183436,-0.06115 -0.101908,-0.03057 -0.12229,-0.04076 -0.03057,-0.01019 -0.04076,-0.1121 0,-0.1121 0.04076,-0.1121 0.183436,0 0.448399,0.02038 0.275154,0.02038 0.448399,0.02038 0.163054,0 0.428017,-0.02038 0.264963,-0.02038 0.417826,-0.02038 0.03057,0 0.04076,0.1121 0.01019,0.1121 -0.04076,0.1121 -0.193627,0.03057 -0.356681,0.163054 -0.183436,0.122291 -0.193627,0.275154 -0.03057,0.519735 -0.05095,1.029279 -0.01019,0.499354 -0.01019,0.825462 0,0.315917 0,0.92737 0.01019,0.601263 0.01019,0.978325 0,0.1121 -0.08153,0.193627 -0.07134,0.08153 -0.173245,0.08153 -0.264963,0 -0.509545,-0.275154 -1.253478,-1.549014 -2.731157,-3.220319 -0.09172,-0.101909 -0.152863,-0.122291 -0.06115,-0.02038 -0.08153,0.01019 -0.01019,0.02038 -0.02038,0.08153 -0.06115,1.936268 -0.04076,2.639439 0.02038,0.234391 0.112099,0.336299 0.122291,0.152864 0.356681,0.193627 0.06115,0.01019 0.05096,0.132482 0,0.1121 -0.08153,0.1121 -0.183436,0 -0.407636,-0.02038 -0.224199,-0.02038 -0.366871,-0.02038 -0.142673,0 -0.377063,0.02038 -0.234391,0.02038 -0.387254,0.02038 z"
         style="font-style:normal;font-variant:normal;font-weight:normal;font-stretch:normal;font-size:10.1909px;font-family:'EB Garamond 12 All SC';-inkscape-font-specification:'EB Garamond 12 All SC';letter-spacing:1.45785px;stroke-width:0.264583px"
         id="path84" />
      <path
         d="m 43.976982,34.48351 q 0,-0.611453 -0.34649,-0.815271 -0.295536,-0.173245 -0.733744,-0.173245 -0.214009,0 -0.315917,0.08153 -0.08153,0.05095 -0.08153,0.173245 -0.02038,0.448399 0,1.233097 0.02038,0.264963 0.122291,0.366872 0.122291,0.142672 0.438208,0.142672 0.407636,0 0.662408,-0.275154 0.254772,-0.275153 0.254772,-0.733743 z m -1.019089,1.345197 q -0.05095,0 -0.407635,-0.03057 -0.356681,-0.03057 -0.529926,-0.03057 -0.163054,0 -0.519735,0.03057 -0.34649,0.02038 -0.428017,0.02038 -0.05096,0 -0.05096,-0.1121 0,-0.122291 0.05096,-0.132482 0.193626,-0.02038 0.275154,-0.04076 0.08153,-0.02038 0.183435,-0.1121 0.203818,-0.173245 0.203818,-0.428017 v -2.782112 q 0,-0.377062 -0.09172,-0.478971 -0.183436,-0.203818 -0.438208,-0.264963 -0.03057,-0.01019 -0.05095,-0.07134 -0.02038,-0.06115 -0.02038,-0.122291 0.01019,-0.06114 0.06115,-0.06114 0.142673,0 0.407636,0.01019 0.275154,0.01019 0.448399,0.01019 0.12229,0 0.407635,-0.02038 0.285345,-0.03057 0.509544,-0.03057 1.650923,0 1.650923,1.059852 0,0.489163 -0.224199,0.713362 -0.142672,0.132482 -0.58088,0.305727 -0.02038,0.01019 -0.03057,0.04076 0,0.02038 0.03057,0.03057 0.224199,0.07134 0.34649,0.12229 0.12229,0.05095 0.305726,0.173245 0.183436,0.122291 0.264963,0.3363 0.09172,0.203817 0.09172,0.489162 0,0.80508 -0.713362,1.202524 -0.275154,0.173246 -1.15157,0.173246 z m -0.45859,-2.894212 q 0.01019,0.163054 0.05096,0.203818 0.05095,0.04076 0.163054,0.05095 0.45859,0.04076 0.856034,-0.193626 0.295536,-0.173245 0.295536,-0.662408 0,-0.377063 -0.183436,-0.601262 -0.173245,-0.2242 -0.713362,-0.2242 -0.275154,0 -0.377063,0.07134 -0.09172,0.07134 -0.101908,0.244581 -0.01019,0.540117 0.01019,1.110806 z"
         style="font-style:normal;font-variant:normal;font-weight:normal;font-stretch:normal;font-size:10.1909px;font-family:'EB Garamond 12 All SC';-inkscape-font-specification:'EB Garamond 12 All SC';letter-spacing:1.45785px;stroke-width:0.264583px"
         id="path86" />
      <path
         d="m 47.248813,35.828707 q -0.06114,0 -0.06114,-0.1121 0.01019,-0.1121 0.06114,-0.132482 0.377063,-0.12229 0.580881,-0.295535 0.173245,-0.142673 0.315917,-0.428018 0.448399,-0.937561 1.182143,-2.731157 0.05095,-0.142672 0.07134,-0.264963 0.01019,-0.05095 0.02038,-0.132481 0.01019,-0.08153 0.02038,-0.132482 l 0.01019,-0.06114 q 0.06115,-0.01019 0.234391,-0.132481 0.173245,-0.122291 0.224199,-0.183436 0.122291,-0.142673 0.142672,-0.142673 0.04076,0 0.07134,0.09172 0.203817,0.550308 0.601262,1.691687 0.407635,1.141379 0.672598,1.84455 0.1121,0.326109 0.356681,0.580881 0.2242,0.244581 0.45859,0.295535 0.06115,0.02038 0.07134,0.132482 0.01019,0.1121 -0.07134,0.1121 -0.183436,0 -0.489163,-0.03057 -0.295535,-0.02038 -0.489162,-0.02038 -0.2242,0 -0.560499,0.02038 -0.336299,0.03057 -0.499353,0.03057 -0.04076,0 -0.05095,-0.06115 -0.01019,-0.06115 0.01019,-0.12229 0.02038,-0.06115 0.05096,-0.06115 0.264963,-0.05095 0.407635,-0.275154 0.08153,-0.142672 0.02038,-0.417826 -0.02038,-0.1121 -0.142672,-0.438208 -0.02038,-0.07134 -0.193627,-0.07134 H 48.8284 q -0.07134,0 -0.12229,0.122291 -0.163055,0.407635 -0.163055,0.438208 -0.04076,0.254772 0.01019,0.336299 0.152864,0.244581 0.428017,0.305726 0.07134,0.01019 0.07134,0.132482 0,0.1121 -0.07134,0.1121 -0.203817,0 -0.509544,-0.03057 -0.305726,-0.02038 -0.499353,-0.02038 -0.142672,0 -0.366872,0.02038 -0.224199,0.03057 -0.356681,0.03057 z m 2.374476,-3.464901 q -0.214008,0.529926 -0.723553,1.640732 -0.03057,0.06115 0,0.08153 0.03057,0.02038 0.132482,0.02038 h 1.192333 q 0.08153,0 0.09172,-0.01019 0.01019,-0.01019 -0.01019,-0.09172 -0.06114,-0.224199 -0.560498,-1.640732 -0.03057,-0.08153 -0.05095,-0.101909 -0.01019,-0.02038 -0.03057,0 -0.01019,0.02038 -0.04076,0.101909 z"
         style="font-style:normal;font-variant:normal;font-weight:normal;font-stretch:normal;font-size:10.1909px;font-family:'EB Garamond 12 All SC';-inkscape-font-specification:'EB Garamond 12 All SC';letter-spacing:1.45785px;stroke-width:0.264583px"
         id="path88" />
      <path
         d="m 54.800798,33.719193 v -1.712068 q 0,-0.203818 -0.06115,-0.315918 -0.06114,-0.12229 -0.122291,-0.142672 -0.06115,-0.03057 -0.214008,-0.08153 -0.04076,-0.01019 -0.07134,-0.07134 -0.02038,-0.06115 -0.01019,-0.122291 0.01019,-0.06114 0.06115,-0.06114 0.163054,0 0.438208,0.01019 0.275154,0.01019 0.448399,0.01019 0.122291,0 0.305727,-0.01019 0.183435,-0.01019 0.397444,-0.01019 0.06115,0 0.06115,0.1121 0,0.112099 -0.06115,0.132481 -0.397444,0.05095 -0.407635,0.621644 v 1.834359 q 0,0.682789 0.428017,1.171952 0.438208,0.489162 1.120997,0.489162 0.652217,0 0.957943,-0.407635 0.305727,-0.407635 0.305727,-1.335006 v -1.599969 q 0.01019,-0.438208 -0.09172,-0.560498 -0.09172,-0.132482 -0.366872,-0.203818 -0.07134,-0.02038 -0.07134,-0.142672 0.01019,-0.122291 0.08153,-0.122291 h 0.733744 q 0.152863,0 0.407635,0 0.254772,-0.01019 0.417826,-0.01019 0.06115,0 0.05096,0.1121 -0.01019,0.101909 -0.05096,0.112099 -0.570689,0.1121 -0.591071,0.560499 -0.07134,0.784698 -0.07134,1.61016 0,2.343903 -1.84455,2.343903 -1.02928,0 -1.61016,-0.631834 -0.57069,-0.631835 -0.57069,-1.579588 z"
         style="font-style:normal;font-variant:normal;font-weight:normal;font-stretch:normal;font-size:10.1909px;font-family:'EB Garamond 12 All SC';-inkscape-font-specification:'EB Garamond 12 All SC';letter-spacing:1.45785px;stroke-width:0.264583px"
         id="path90" />
      <path
         d="m 64.900521,35.808325 q -0.09172,0.173245 -0.203818,0.152863 -0.101909,-0.01019 -0.173245,-0.173245 -0.275154,-0.58088 -0.743935,-1.691687 -0.45859,-1.120997 -0.682789,-1.640732 -0.07134,-0.173245 -0.09172,0 -0.203818,1.987222 -0.23439,2.53753 0,0.193627 0.203817,0.397444 0.122291,0.132482 0.377063,0.193627 0.05095,0.01019 0.06114,0.132482 0.02038,0.1121 -0.06114,0.1121 -0.132481,0 -0.387254,-0.02038 -0.244581,-0.02038 -0.397444,-0.02038 -0.173245,0 -0.448399,0.02038 -0.264963,0.02038 -0.377063,0.02038 -0.06115,0 -0.06115,-0.1121 0.01019,-0.122291 0.06115,-0.132482 0.326109,-0.07134 0.448399,-0.163054 0.1121,-0.09172 0.132482,-0.264963 0.315917,-2.323522 0.315917,-3.098029 0,-0.254772 -0.1121,-0.387253 -0.142672,-0.163055 -0.591071,-0.264963 -0.09172,-0.02038 -0.06114,-0.183436 0.02038,-0.06115 0.05095,-0.06115 0.326109,0.05096 0.733744,0.05096 0.417826,0 0.58088,-0.01019 0.173245,-0.02038 0.254772,0.01019 1.120998,2.812684 1.406343,3.505664 0.08153,0.203818 0.163054,0.02038 0.203817,-0.417826 0.377062,-0.815271 0.183436,-0.397444 0.264963,-0.611453 0.09172,-0.214009 0.295536,-0.723553 0.203818,-0.509544 0.305727,-0.754125 0.254772,-0.591072 0.275153,-0.591072 h 0.468781 q 0.183436,0 0.91718,-0.09172 0.07134,-0.01019 0,0.142673 -0.03057,0.06114 -0.06115,0.08153 -0.08153,0.03057 -0.163054,0.04076 -0.08153,0.01019 -0.132481,0.03057 -0.05096,0.02038 -0.132482,0.07134 -0.112099,0.08153 -0.112099,0.326109 0.01019,1.752832 0.132481,3.210128 0.01019,0.163054 0.163054,0.285345 0.214009,0.183436 0.468781,0.23439 0.05095,0.02038 0.06115,0.142673 0.01019,0.1121 -0.06115,0.1121 -0.09172,0 -0.366872,-0.02038 -0.275154,-0.02038 -0.468781,-0.02038 -0.254772,0 -0.672598,0.02038 -0.407635,0.02038 -0.45859,0.02038 -0.06115,0 -0.07134,-0.1121 -0.01019,-0.122291 0.04076,-0.142673 0.07134,-0.02038 0.12229,-0.03057 0.05096,-0.02038 0.08153,-0.04076 0.04076,-0.03057 0.05096,-0.04076 0.01019,-0.01019 0.04076,-0.04076 0.04076,-0.04076 0.06115,-0.06114 0.142672,-0.142673 0.142672,-0.305727 0.01019,-0.428017 -0.08153,-2.547721 -0.01019,-0.193627 -0.101909,0 -1.457297,3.098029 -1.549014,3.301847 z"
         style="font-style:normal;font-variant:normal;font-weight:normal;font-stretch:normal;font-size:10.1909px;font-family:'EB Garamond 12 All SC';-inkscape-font-specification:'EB Garamond 12 All SC';letter-spacing:1.45785px;stroke-width:0.264583px"
         id="path92" />
      <path
         d="m 76.244074,35.553553 q 0.509544,0 0.896798,-0.2242 0.214008,-0.142672 0.214008,-0.570689 0,-0.06115 0.01019,-0.203818 0.01019,-0.152863 0,-0.23439 0,-0.08153 -0.03057,-0.122291 -0.09172,-0.101909 -0.315917,-0.152863 -0.214009,-0.06115 -0.366872,-0.06115 -0.09172,0 -0.142672,-0.264963 0,-0.08153 0.03057,-0.08153 0.214009,0 0.540117,0.02038 0.326109,0.01019 0.519735,0.01019 0.163055,0 0.417827,-0.01019 0.254772,-0.01019 0.377062,-0.01019 0.09172,0 0.09172,0.06115 0,0.244581 -0.07134,0.275153 -0.377063,0.1121 -0.397444,0.3363 -0.03057,0.285344 -0.03057,0.723552 0,0.03057 0.04076,0.1121 0.01019,0.02038 0.05095,0.06114 0.04076,0.03057 0.04076,0.05096 0,0.08153 -0.101909,0.132481 -0.519735,0.275154 -0.80508,0.356681 -0.529926,0.163054 -0.978325,0.163054 -1.03947,0 -1.803787,-0.682789 -0.754125,-0.69298 -0.754125,-1.701878 0,-1.008897 0.825462,-1.681495 0.835652,-0.68279 1.926077,-0.68279 0.723553,0 1.161761,0.142673 0.224199,0.07134 0.254772,0.203817 0.132481,0.529926 0.132481,0.794889 0,0.142673 -0.1121,0.142673 -0.101908,0 -0.193626,-0.06115 -0.09172,-0.06115 -0.1121,-0.132481 -0.1121,-0.315918 -0.23439,-0.468781 -0.275154,-0.305726 -1.049662,-0.295535 -0.743934,0.01019 -1.243287,0.550307 -0.499354,0.529926 -0.499354,1.324815 0,0.876416 0.468781,1.528633 0.478971,0.652217 1.243288,0.652217 z"
         style="font-style:normal;font-variant:normal;font-weight:normal;font-stretch:normal;font-size:10.1909px;font-family:'EB Garamond 12 All SC';-inkscape-font-specification:'EB Garamond 12 All SC';letter-spacing:1.45785px;stroke-width:0.264583px"
         id="path94" />
      <path
         d="m 83.81646,35.808325 q -0.09172,0.173245 -0.203818,0.152863 -0.101909,-0.01019 -0.173245,-0.173245 -0.275154,-0.58088 -0.743934,-1.691687 -0.45859,-1.120997 -0.68279,-1.640732 -0.07134,-0.173245 -0.09172,0 -0.203817,1.987222 -0.23439,2.53753 0,0.193627 0.203818,0.397444 0.12229,0.132482 0.377062,0.193627 0.05096,0.01019 0.06115,0.132482 0.02038,0.1121 -0.06115,0.1121 -0.132481,0 -0.387253,-0.02038 -0.244581,-0.02038 -0.397445,-0.02038 -0.173245,0 -0.448399,0.02038 -0.264963,0.02038 -0.377062,0.02038 -0.06115,0 -0.06115,-0.1121 0.01019,-0.122291 0.06115,-0.132482 0.326108,-0.07134 0.448399,-0.163054 0.112099,-0.09172 0.132481,-0.264963 0.315917,-2.323522 0.315917,-3.098029 0,-0.254772 -0.112099,-0.387253 -0.142673,-0.163055 -0.591072,-0.264963 -0.09172,-0.02038 -0.06114,-0.183436 0.02038,-0.06115 0.05096,-0.06115 0.326108,0.05096 0.733743,0.05096 0.417827,0 0.580881,-0.01019 0.173245,-0.02038 0.254772,0.01019 1.120997,2.812684 1.406342,3.505664 0.08153,0.203818 0.163054,0.02038 0.203818,-0.417826 0.377063,-0.815271 0.183436,-0.397444 0.264963,-0.611453 0.09172,-0.214009 0.295535,-0.723553 0.203818,-0.509544 0.305727,-0.754125 0.254772,-0.591072 0.275154,-0.591072 h 0.46878 q 0.183436,0 0.91718,-0.09172 0.07134,-0.01019 0,0.142673 -0.03057,0.06114 -0.06114,0.08153 -0.08153,0.03057 -0.163054,0.04076 -0.08153,0.01019 -0.132482,0.03057 -0.05095,0.02038 -0.132481,0.07134 -0.1121,0.08153 -0.1121,0.326109 0.01019,1.752832 0.132481,3.210128 0.01019,0.163054 0.163055,0.285345 0.214008,0.183436 0.46878,0.23439 0.05096,0.02038 0.06115,0.142673 0.01019,0.1121 -0.06115,0.1121 -0.09172,0 -0.366872,-0.02038 -0.275153,-0.02038 -0.46878,-0.02038 -0.254772,0 -0.672599,0.02038 -0.407635,0.02038 -0.458589,0.02038 -0.06115,0 -0.07134,-0.1121 -0.01019,-0.122291 0.04076,-0.142673 0.07134,-0.02038 0.122291,-0.03057 0.05095,-0.02038 0.08153,-0.04076 0.04076,-0.03057 0.05095,-0.04076 0.01019,-0.01019 0.04076,-0.04076 0.04076,-0.04076 0.06114,-0.06114 0.142672,-0.142673 0.142672,-0.305727 0.01019,-0.428017 -0.08153,-2.547721 -0.01019,-0.193627 -0.101909,0 -1.457296,3.098029 -1.549014,3.301847 z"
         style="font-style:normal;font-variant:normal;font-weight:normal;font-stretch:normal;font-size:10.1909px;font-family:'EB Garamond 12 All SC';-inkscape-font-specification:'EB Garamond 12 All SC';letter-spacing:1.45785px;stroke-width:0.264583px"
         id="path96" />
      <path
         d="m 91.949333,34.48351 q 0,-0.611453 -0.34649,-0.815271 -0.295536,-0.173245 -0.733744,-0.173245 -0.214009,0 -0.315917,0.08153 -0.08153,0.05095 -0.08153,0.173245 -0.02038,0.448399 0,1.233097 0.02038,0.264963 0.12229,0.366872 0.122291,0.142672 0.438208,0.142672 0.407636,0 0.662408,-0.275154 0.254772,-0.275153 0.254772,-0.733743 z m -1.019089,1.345197 q -0.05095,0 -0.407635,-0.03057 -0.356681,-0.03057 -0.529926,-0.03057 -0.163054,0 -0.519735,0.03057 -0.34649,0.02038 -0.428017,0.02038 -0.05096,0 -0.05096,-0.1121 0,-0.122291 0.05096,-0.132482 0.193627,-0.02038 0.275154,-0.04076 0.08153,-0.02038 0.183436,-0.1121 0.203817,-0.173245 0.203817,-0.428017 v -2.782112 q 0,-0.377062 -0.09172,-0.478971 -0.183436,-0.203818 -0.438208,-0.264963 -0.03057,-0.01019 -0.05095,-0.07134 -0.02038,-0.06115 -0.02038,-0.122291 0.01019,-0.06114 0.06114,-0.06114 0.142673,0 0.407636,0.01019 0.275154,0.01019 0.448399,0.01019 0.12229,0 0.407635,-0.02038 0.285345,-0.03057 0.509544,-0.03057 1.650924,0 1.650924,1.059852 0,0.489163 -0.2242,0.713362 -0.142672,0.132482 -0.58088,0.305727 -0.02038,0.01019 -0.03057,0.04076 0,0.02038 0.03057,0.03057 0.224199,0.07134 0.34649,0.12229 0.12229,0.05095 0.305726,0.173245 0.183436,0.122291 0.264963,0.3363 0.09172,0.203817 0.09172,0.489162 0,0.80508 -0.713362,1.202524 -0.275154,0.173246 -1.15157,0.173246 z m -0.458589,-2.894212 q 0.01019,0.163054 0.05095,0.203818 0.05095,0.04076 0.163054,0.05095 0.45859,0.04076 0.856034,-0.193626 0.295536,-0.173245 0.295536,-0.662408 0,-0.377063 -0.183436,-0.601262 -0.173245,-0.2242 -0.713362,-0.2242 -0.275154,0 -0.377062,0.07134 -0.09172,0.07134 -0.101909,0.244581 -0.01019,0.540117 0.01019,1.110806 z"
         style="font-style:normal;font-variant:normal;font-weight:normal;font-stretch:normal;font-size:10.1909px;font-family:'EB Garamond 12 All SC';-inkscape-font-specification:'EB Garamond 12 All SC';letter-spacing:1.45785px;stroke-width:0.264583px"
         id="path98" />
      <path
         d="m 96.515407,33.158695 q 0,0.06114 0.101908,0.06114 1.487869,0.03057 2.486576,0 0.05096,0 0.05096,-0.08153 V 31.95617 q 0,-0.152863 -0.163055,-0.285344 -0.132481,-0.1121 -0.448398,-0.244582 -0.05095,-0.02038 -0.05095,-0.12229 0,-0.1121 0.05095,-0.1121 0.224199,0 0.509544,0.01019 0.285345,0.01019 0.46878,0.01019 0.193627,0 0.499348,-0.01019 0.30573,-0.01019 0.51974,-0.01019 0.0611,0 0.051,0.1121 0,0.101909 -0.051,0.12229 -0.35669,0.142673 -0.47898,0.254772 -0.142663,0.122291 -0.142663,0.275154 v 3.006311 q 0,0.244582 0.142663,0.377063 0.20382,0.183436 0.55031,0.244581 0.0815,0.02038 0.0815,0.132482 0,0.1121 -0.0815,0.1121 -0.20382,0 -0.54011,-0.03057 -0.336299,-0.02038 -0.550308,-0.02038 -0.203817,0 -0.529926,0.02038 -0.326108,0.03057 -0.519735,0.03057 -0.04076,0 -0.07134,-0.05096 -0.02038,-0.06114 -0.01019,-0.122291 0.02038,-0.06115 0.08153,-0.07134 0.366872,-0.07134 0.550308,-0.244581 0.132482,-0.122291 0.132482,-0.377063 v -1.314624 q 0,-0.05095 -0.04076,-0.05095 -1.538824,-0.03057 -2.568103,0 -0.03057,0 -0.03057,0.07134 v 1.294242 q 0,0.244582 0.142672,0.377063 0.203818,0.183436 0.540117,0.244581 0.09172,0.02038 0.09172,0.132482 0,0.1121 -0.09172,0.1121 -0.203818,0 -0.519735,-0.03057 -0.315918,-0.02038 -0.519735,-0.02038 -0.2242,0 -0.57069,0.02038 -0.336299,0.03057 -0.519735,0.03057 -0.04076,0 -0.07134,-0.05096 -0.02038,-0.06114 -0.01019,-0.122291 0.02038,-0.06115 0.08153,-0.07134 0.366872,-0.07134 0.550308,-0.244581 0.132481,-0.122291 0.132481,-0.377063 V 31.95617 q 0,-0.152863 -0.163054,-0.285344 -0.132481,-0.1121 -0.448399,-0.244582 -0.03057,-0.01019 -0.05095,-0.07134 -0.01019,-0.06114 0,-0.1121 0.02038,-0.05095 0.05095,-0.05095 0.2242,0 0.519735,0.01019 0.305727,0.01019 0.499354,0.01019 0.183435,0 0.46878,-0.01019 0.285345,-0.01019 0.499354,-0.01019 0.06115,0 0.06115,0.1121 0,0.101909 -0.06115,0.12229 -0.34649,0.142673 -0.468781,0.254772 -0.142672,0.101909 -0.142672,0.275154 z"
         style="font-style:normal;font-variant:normal;font-weight:normal;font-stretch:normal;font-size:10.1909px;font-family:'EB Garamond 12 All SC';-inkscape-font-specification:'EB Garamond 12 All SC';letter-spacing:1.45785px;stroke-width:0.264583px"
         id="path100" />
    </g>
  </g>
</svg>
